<svg aria-hidden="true" style="position: absolute; width: 0; height: 0; overflow: hidden;" version="1.1" xmlns="http://www.w3.org/2000/svg" xmlns:xlink="http://www.w3.org/1999/xlink">
<defs>
<symbol id="icon-audiobook" viewBox="0 0 26 32">
<path d="M2.048 21.84h8.219c0.415 0.848 1.272 1.422 2.262 1.422 0.003 0 0.006 0 0.009-0h0.519c0.003 0 0.006 0 0.010 0 0.991 0 1.847-0.574 2.256-1.407l0.007-0.015h8.223c0.847 0 1.536-0.689 1.536-1.536v-14.72c0-0.847-0.689-1.536-1.536-1.536h-0.829v-0.686c0-0.564-0.46-1.024-1.024-1.024h-17.802c-0.564 0-1.024 0.46-1.024 1.024v0.686h-0.824c-0.847 0-1.536 0.689-1.536 1.536v14.72c0 0.847 0.689 1.536 1.536 1.536zM21.698 18.681h-8.386v-11.897c1.938 0.253 3.441 1.912 3.441 3.918v0.462l-0.121-0.027c-0.033-0.008-0.071-0.012-0.11-0.012-0.244 0-0.448 0.17-0.499 0.399l-0.001 0.003-0.815 3.708c-0.008 0.033-0.012 0.071-0.012 0.109 0 0.244 0.17 0.448 0.399 0.499l0.003 0.001 1.761 0.388c0.091 0.019 0.184 0.029 0.276 0.029 0.62 0 1.147-0.424 1.282-1.032l0.472-2.145c0.019-0.084 0.030-0.181 0.030-0.28 0-0.624-0.435-1.146-1.019-1.28l-0.009-0.002-0.613-0.135v-0.688c0-2.572-1.961-4.695-4.465-4.953v-2.386h8.387l-0.001 15.319zM16.911 12.247l1.257 0.277c0.157 0.035 0.253 0.184 0.219 0.341l-0.471 2.145c-0.035 0.131-0.153 0.226-0.293 0.226-0.017 0-0.034-0.001-0.050-0.004l0.002 0-1.259-0.277 0.595-2.708zM3.896 3.362h8.392v2.386c-2.507 0.256-4.47 2.379-4.47 4.953v0.687l-0.614 0.136c-0.347 0.078-0.636 0.285-0.818 0.568l-0.003 0.005c-0.129 0.198-0.206 0.441-0.206 0.702 0 0.101 0.012 0.2 0.033 0.294l-0.002-0.009 0.471 2.142c0.134 0.596 0.658 1.035 1.285 1.035 0.098 0 0.194-0.011 0.286-0.031l-0.009 0.002 1.754-0.387c0.231-0.052 0.401-0.256 0.401-0.5 0-0.039-0.004-0.076-0.012-0.113l0.001 0.003-0.815-3.709c-0.052-0.231-0.256-0.402-0.499-0.402-0.039 0-0.078 0.004-0.115 0.013l0.003-0.001-0.117 0.026v-0.461c0-2.008 1.505-3.667 3.446-3.919v11.899h-8.392v-15.319zM8.679 12.247l0.596 2.708-1.252 0.276c-0.018 0.004-0.039 0.006-0.060 0.006-0.138 0-0.253-0.096-0.283-0.225l-0-0.002-0.471-2.148c-0.005-0.019-0.007-0.041-0.007-0.064 0-0.056 0.016-0.108 0.044-0.151l-0.001 0.001c0.041-0.063 0.104-0.108 0.178-0.125l0.002-0 1.254-0.276zM1.536 5.584c0-0.282 0.229-0.512 0.512-0.512h0.824v13.609c0 0.565 0.46 1.024 1.024 1.024h17.802c0.564 0 1.024-0.459 1.024-1.024v-13.608h0.829c0.283 0 0.512 0.23 0.512 0.512v14.72c0 0.283-0.229 0.512-0.512 0.512h-8.571c-0.229 0-0.423 0.151-0.489 0.358l-0.001 0.004c-0.192 0.618-0.758 1.060-1.428 1.060-0.002 0-0.004 0-0.007 0h-0.519c-0.001 0-0.001 0-0.002 0-0.673 0-1.243-0.444-1.431-1.055l-0.003-0.011c-0.068-0.208-0.261-0.356-0.488-0.356-0 0-0 0-0 0h-8.566c-0.283 0-0.512-0.229-0.512-0.512v-14.72z"></path>
</symbol>
<symbol id="icon-campfire" viewBox="0 0 26 32">
<path d="M20.635 13.26c-0.218-0.493-0.52-0.979-0.96-1.54-1.111-1.408-1.449-4.548-1.453-4.578-0.015-0.151-0.12-0.275-0.26-0.32-0.143-0.045-0.297-0.004-0.399 0.109-1.325 1.495-0.768 3.802-0.467 4.725 0.083 0.252 0.173 0.55 0.237 0.851 0.489 2.436-0.456 3.539-0.678 3.761-0.215 0.060-0.361 0.030-0.497-0.117-0.467-0.516-0.621-2.206-0.403-4.408 0.045-0.448 0.034-0.851-0.030-1.227-0.46-2.707-2.149-4.443-2.579-5.052-1.182-1.762-1.303-4.695-1.306-4.721-0.004-0.139-0.083-0.264-0.207-0.324-0.12-0.060-0.267-0.053-0.38 0.026-1.973 1.352-1.803 4.608-1.528 6.426 0.064 0.422 0.188 0.851 0.403 1.393 0.764 1.939-0.151 4.442-0.158 4.465s-0.015 0.041-0.019 0.064c-0.117 0.617-0.312 0.986-0.531 0.986-0.023 0-0.045-0.004-0.072-0.011-0.267-0.056-0.407-0.343-0.41-0.591-0.015-3.211-3.211-4.292-3.245-4.303-0.143-0.045-0.301-0.004-0.399 0.113-0.102 0.117-0.12 0.279-0.053 0.414 0.038 0.079 0.158 0.425 0.075 1.649-0.072 1.099-0.271 2.187-0.591 3.23-0.76 2.5-0.64 4.868-0.632 4.981 0.585 6.412 9.729 7.535 15.157 3.923 0.595-0.395 1.080-0.847 1.438-1.344 2.003-2.786 0.825-6.569-0.053-8.58zM6.725 19.386c0.011 0.207-0.147 0.384-0.354 0.395h-0.023c-0.2 0-0.365-0.154-0.376-0.354-0.034-0.55-0.026-1.126 0.015-1.751 0.015-0.207 0.196-0.361 0.403-0.35 0.207 0.015 0.365 0.196 0.35 0.403-0.041 0.595-0.049 1.137-0.015 1.657zM6.909 16.050c-0.023 0.192-0.184 0.331-0.373 0.331-0.015 0-0.030 0-0.049-0.004-0.203-0.026-0.35-0.211-0.328-0.418l0.181-1.453c0.026-0.203 0.211-0.35 0.422-0.328 0.207 0.026 0.354 0.215 0.328 0.422l-0.181 1.449z"></path>
<path d="M18.088 5.527c-0.205-0.032-0.346-0.224-0.314-0.429 0.024-0.153 0.16-0.936 0.529-1.33 0.142-0.152 0.38-0.16 0.532-0.017s0.159 0.38 0.017 0.532c-0.156 0.167-0.289 0.644-0.334 0.929-0.032 0.203-0.221 0.346-0.43 0.314z"></path>
<path d="M4.364 7.402c-0.072-0.28-0.251-0.742-0.423-0.892-0.156-0.137-0.172-0.375-0.035-0.531s0.374-0.173 0.531-0.035c0.406 0.356 0.618 1.122 0.656 1.272 0.051 0.201-0.070 0.406-0.271 0.458-0.206 0.052-0.407-0.073-0.458-0.271z"></path>
</symbol>
<symbol id="icon-campfirebig" viewBox="0 0 28 32">
<path d="M28.799 21.831c-0.373-0.836-0.887-1.659-1.639-2.609-1.896-2.386-2.474-7.706-2.481-7.757-0.026-0.255-0.206-0.466-0.443-0.542-0.059-0.019-0.127-0.031-0.197-0.031-0.192 0-0.364 0.083-0.484 0.215l-0 0.001c-2.262 2.533-1.311 6.443-0.797 8.006 0.141 0.427 0.296 0.931 0.405 1.442 0.835 4.127-0.778 5.996-1.157 6.373-0.366 0.102-0.617 0.051-0.848-0.198-0.797-0.874-1.060-3.738-0.688-7.47 0.077-0.759 0.058-1.442-0.051-2.080-0.786-4.587-3.668-7.529-4.402-8.561-2.018-2.985-2.224-7.955-2.23-7.999-0.006-0.236-0.141-0.447-0.353-0.549-0.206-0.102-0.456-0.089-0.649 0.045-3.368 2.29-3.078 7.808-2.609 10.889 0.109 0.714 0.321 1.442 0.688 2.36 1.305 3.285-0.257 7.527-0.27 7.566s-0.026 0.070-0.032 0.108c-0.199 1.046-0.533 1.671-0.906 1.671-0.039 0-0.077-0.006-0.122-0.019-0.456-0.096-0.694-0.581-0.7-1.002-0.026-5.441-5.482-7.272-5.54-7.291-0.244-0.077-0.514-0.006-0.681 0.191-0.174 0.198-0.206 0.472-0.090 0.702 0.064 0.134 0.27 0.721 0.129 2.794-0.122 1.863-0.463 3.706-1.009 5.473-1.298 4.236-1.093 8.248-1.080 8.439 0.998 10.864 16.609 12.768 25.873 6.647 1.015-0.67 1.844-1.435 2.455-2.277 3.419-4.721 1.407-11.131-0.090-14.538zM5.053 32.21c0.019 0.351-0.251 0.651-0.604 0.67h-0.039c-0.341 0-0.623-0.262-0.643-0.6-0.058-0.931-0.045-1.907 0.026-2.966 0.026-0.351 0.334-0.612 0.688-0.593 0.353 0.026 0.623 0.332 0.598 0.683-0.071 1.008-0.084 1.927-0.026 2.807zM5.368 26.558c-0.039 0.325-0.315 0.561-0.636 0.561-0.026 0-0.051 0-0.084-0.006-0.347-0.045-0.598-0.357-0.559-0.708l0.308-2.462c0.045-0.344 0.36-0.593 0.72-0.555 0.354 0.045 0.604 0.364 0.559 0.714l-0.308 2.456zM24.451 8.727c-0.351-0.054-0.591-0.379-0.537-0.727 0.040-0.259 0.272-1.586 0.902-2.253 0.243-0.257 0.649-0.271 0.908-0.029 0.125 0.116 0.203 0.282 0.203 0.465 0 0.169-0.066 0.323-0.174 0.437l0-0c-0.267 0.283-0.494 1.091-0.57 1.575-0.054 0.344-0.378 0.586-0.733 0.533zM1.023 11.905c-0.123-0.474-0.429-1.257-0.722-1.512-0.267-0.232-0.294-0.635-0.060-0.9s0.639-0.292 0.907-0.059c0.693 0.603 1.054 1.901 1.12 2.154 0.088 0.341-0.119 0.688-0.463 0.776-0.351 0.088-0.695-0.123-0.783-0.459z"></path>
</symbol>
<symbol id="icon-check" viewBox="0 0 26 32">
<path d="M20.463 5.366c-0.762 0.341-1.492 0.757-2.189 1.221-1.402 0.922-2.683 2.020-3.885 3.191-1.201 1.174-2.32 2.43-3.377 3.736-0.264 0.327-1.449 1.781-1.449 1.781l-4.925-7.38-1.859 5.153 6.66 7.943c0.647-1.309 1.269-2.602 1.88-3.725 0.152-0.286 0.311-0.554 0.462-0.827 0 0 0.782-1.374 0.987-1.72 0.822-1.384 1.71-2.733 2.689-4.014 0.979-1.279 2.044-2.499 3.251-3.572 0.601-0.54 1.24-1.039 1.925-1.474 0.684-0.435 1.41-0.817 2.187-1.091-0.808 0.159-1.597 0.435-2.357 0.777z"></path>
</symbol>
<symbol id="icon-female" viewBox="0 0 26 32">
<path d="M2.211 25.028c2.723 0 18.478 0 21.198 0 0.105-2.407-0.068-6.401-1.554-8.302l-0.054-0.068-3.248-1.624c0.071-0.237 0.105-0.454 0.119-0.613 0.016-0.191-0.010-0.371-0.079-0.534-0.536-1.277-1.67-1.948-2.293-2.235 0.19-0.381 0.313-0.791 0.372-1.209 0.353-0.099 0.637-0.378 0.73-0.749l0.379-1.534c0.067-0.271 0.025-0.551-0.119-0.79-0.062-0.103-0.142-0.189-0.233-0.264 1.069-2.418-0.721-4.697-0.819-4.817-1.939-2.087-4.388-1.697-4.518-1.674-3.535 0.737-4.899 3.434-4.129 6.598-0.228 0.252-0.324 0.602-0.239 0.946l0.381 1.535c0.092 0.369 0.374 0.647 0.725 0.747 0.108 0.766 0.434 1.459 0.912 2.017v1.216c-5.072 2.586-1.858 0.936-5.923 2.984-0.008 0.038-1.907 2.048-1.625 8.006l0.017 0.364zM22.673 24.264h-3.489v-1.459l2.307-5.26c1.156 1.91 1.199 5.558 1.181 6.719zM17.911 14.356c-0.135 1.54-0.983 1.075-1.506 2.261-0.412-0.451-0.536-0.992-0.425-1.57 0.2-1.063-0.451-1.378-0.29-2.495l0.024-0.026v-0.004c0.014-0.015 0.142-0.168 0.179-0.216 1.38 0.599 2.045 1.713 2.018 2.049zM10.506 13.145c0.641 0.443 1.414 0.704 2.246 0.704 0.784 0 1.528-0.227 2.166-0.645 0.088 0.878 0.433 1.054 0.311 1.7-0.023 0.12-0.035 0.238-0.043 0.354l-2.376 2.666-3.037-3.41 0.733-0.381v-0.988zM9.551 9.882v-1.478c0-0.544 0-2.704 0-2.598 0.37-0.681 0.874-1.175 1.5-1.471 1.678 0.945 3.609 2.356 4.904 3.776-0.001 1.808 0.005 1.813-0.007 1.962l-0.001 0.009c-0.101 1.642-1.457 3.003-3.196 3.003-1.69 0-3.094-1.321-3.195-3.019-0.005-0.061-0.006-0.122-0.006-0.184zM9.078 14.884l3.732 4.19 2.506-2.812c0.057 0.164 0.138 0.319 0.229 0.469l-2.735 3.406-4.079-5.080 0.346-0.173zM16.72 9.267v-1.18c0.034-0.038 0.318-0.364 0.285-0.325 0.016 0.598 0.081-0.108-0.285 1.506zM12.234 1.367c0.152 0.009 2.188-0.308 3.798 1.422 0.063 0.079 1.374 1.76 0.847 3.599-0.18-0.818-0.494-1.867-0.991-2.368l-0.543 0.538c0.49 0.494 0.812 1.999 0.935 2.78-2.248-2.342-5.148-3.825-5.188-3.85-0.145 0.090-1.373 0.322-2.264 2.047l-0.043 0.082v1.267c-0.038 0-0.151 0.002-0.112 0.001-0.566-2.722 0.518-4.885 3.559-5.519zM8.594 7.672l0.193 0.778v0.818l-0.321-1.292c-0.047-0.193 0.096-0.266 0.128-0.304zM8.032 15.406l4.778 5.951 3.233-4.026c0.352 0.313 0.521 0.358 1.266 0.74l-0.252-0.849c-0.064-0.216 0.189-0.562 0.341-0.721 0.341-0.184 0.625-0.446 0.837-0.77l2.638 1.319-2.454 5.595v1.619h-11.219v-1.62l-2.456-5.595 3.287-1.643zM4.129 17.546l2.308 5.258v1.459h-3.489c-0.018-1.161 0.026-4.807 1.181-6.718z"></path>
</symbol>
<symbol id="icon-instagram" viewBox="0 0 32 32">
<path fill="#000" style="fill: var(--color1, #000)" d="M31.452 5.724c-0.291-2.729-2.447-4.885-5.176-5.176-6.844-0.73-13.709-0.73-20.552 0-2.729 0.291-4.885 2.447-5.176 5.176-0.73 6.844-0.73 13.708 0 20.552 0.291 2.729 2.447 4.885 5.176 5.176 6.844 0.73 13.709 0.73 20.553 0 2.729-0.291 4.885-2.447 5.176-5.176 0.73-6.844 0.73-13.708 0-20.552z"></path>
<path fill="#000" style="fill: var(--color1, #000)" d="M29.712 6.881c-0.258-2.422-2.171-4.334-4.593-4.593-6.073-0.648-12.165-0.648-18.238 0-2.422 0.259-4.334 2.171-4.593 4.593-0.648 6.073-0.648 12.165 0 18.238 0.259 2.422 2.171 4.335 4.593 4.593 6.073 0.648 12.165 0.648 18.238 0 2.422-0.258 4.335-2.171 4.593-4.593 0.648-6.073 0.648-12.164 0-18.238z"></path>
<path fill="#000" style="fill: var(--color1, #000)" d="M0.479 25.613c0.022 0.221 0.045 0.442 0.068 0.664 0.291 2.729 2.447 4.885 5.176 5.176 6.844 0.73 13.709 0.73 20.552 0 2.729-0.291 4.885-2.447 5.176-5.176 0.024-0.221 0.046-0.442 0.069-0.664z"></path>
<path fill="#000" style="fill: var(--color1, #000)" d="M31.452 26.276c0.393-3.678 0.574-7.361 0.544-11.044l-7.314-7.314c-0.914-1.043-2.249-1.694-3.817-1.751-3.225-0.116-6.461-0.11-9.687 0-2.679 0.092-4.553 1.893-5.033 4.54-0.085 0.467-0.136 0.941-0.202 1.411v7.759c0.037 0.251 0.091 0.502 0.108 0.755 0.107 1.61 0.769 2.989 1.828 3.922l7.443 7.443c3.653 0.026 7.306-0.156 10.954-0.545 2.729-0.291 4.885-2.447 5.176-5.176z"></path>
<path fill="#000" style="fill: var(--color1, #000)" d="M31.452 26.276c-0.291 2.729-2.447 4.885-5.176 5.176-3.647 0.389-7.301 0.571-10.953 0.545l-7.432-7.432c0.862 0.754 1.985 1.213 3.288 1.262 3.225 0.121 6.461 0.118 9.687 0.002 2.917-0.105 5.028-2.264 5.119-5.181 0.097-3.097 0.097-6.202 0-9.3-0.041-1.346-0.514-2.53-1.297-3.426l7.31 7.31c0.029 3.682-0.152 7.366-0.545 11.044z"></path>
<path fill="#000" style="fill: var(--color1, #000)" d="M19.776 12.535c-0.937-1.020-2.282-1.66-3.776-1.66-2.831 0-5.125 2.295-5.125 5.125 0 1.494 0.64 2.839 1.66 3.776l11.859 11.859c0.628-0.055 1.255-0.115 1.883-0.182 2.729-0.291 4.885-2.447 5.176-5.176 0.067-0.627 0.128-1.255 0.182-1.883z"></path>
<path fill="#000" style="fill: var(--color1, #000)" d="M31.938 19.447l-9.544-9.544c-0.223-0.292-0.573-0.482-0.969-0.482-0.673 0-1.219 0.546-1.219 1.219 0 0.396 0.19 0.747 0.482 0.969l11.080 11.080c0.075-1.081 0.132-2.162 0.171-3.243z"></path>
<path fill="#000" style="fill: var(--color1, #000)" d="M5.943 12.119c0.067-0.471 0.117-0.944 0.202-1.411 0.48-2.647 2.354-4.447 5.033-4.54 3.226-0.111 6.461-0.117 9.687-0 2.916 0.105 5.028 2.264 5.119 5.181 0.097 3.097 0.097 6.202 0 9.3-0.091 2.917-2.202 5.076-5.119 5.181-3.225 0.116-6.462 0.119-9.687-0.002-2.916-0.11-4.933-2.274-5.128-5.195-0.017-0.253-0.071-0.503-0.108-0.755 0-2.586 0-5.173 0-7.759zM16.003 24.101c1.476 0 2.954 0.044 4.428-0.010 2.311-0.086 3.733-1.465 3.787-3.774 0.067-2.877 0.067-5.758 0-8.636-0.054-2.309-1.477-3.72-3.787-3.769-2.932-0.062-5.868-0.062-8.8 0-2.293 0.048-3.719 1.431-3.781 3.714-0.079 2.914-0.079 5.832 0 8.746 0.062 2.283 1.488 3.634 3.781 3.719 1.456 0.054 2.915 0.010 4.372 0.010z"></path>
<path fill="#fff" style="fill: var(--color2, #fff)" d="M5.943 12.119c0.067-0.471 0.117-0.944 0.202-1.411 0.48-2.647 2.354-4.447 5.033-4.54 3.226-0.111 6.461-0.117 9.687-0 2.916 0.105 5.028 2.264 5.119 5.181 0.097 3.097 0.097 6.202 0 9.3-0.091 2.917-2.202 5.076-5.119 5.181-3.225 0.116-6.462 0.119-9.687-0.002-2.916-0.11-4.933-2.274-5.128-5.195-0.017-0.253-0.071-0.503-0.108-0.755 0-2.586 0-5.173 0-7.759zM16.003 24.101c1.476 0 2.954 0.044 4.428-0.010 2.311-0.086 3.733-1.465 3.787-3.774 0.067-2.877 0.067-5.758 0-8.636-0.054-2.309-1.477-3.72-3.787-3.769-2.932-0.062-5.868-0.062-8.8 0-2.293 0.048-3.719 1.431-3.781 3.714-0.079 2.914-0.079 5.832 0 8.746 0.062 2.283 1.488 3.634 3.781 3.719 1.456 0.054 2.915 0.010 4.372 0.010z"></path>
<path fill="#fff" style="fill: var(--color2, #fff)" d="M16 10.875c-2.831 0-5.125 2.295-5.125 5.125s2.295 5.125 5.125 5.125c2.831 0 5.125-2.295 5.125-5.125s-2.295-5.125-5.125-5.125zM16 19.361c-1.856 0-3.361-1.505-3.361-3.361s1.505-3.361 3.361-3.361 3.361 1.505 3.361 3.361-1.505 3.361-3.361 3.361z"></path>
<path fill="#fff" style="fill: var(--color2, #fff)" d="M22.644 10.641c0 0.673-0.546 1.219-1.219 1.219s-1.219-0.546-1.219-1.219c0-0.674 0.546-1.219 1.219-1.219s1.219 0.546 1.219 1.219z"></path>
</symbol>
<symbol id="icon-insurance" viewBox="0 0 22 32">
<path d="M0.433 10.994c0 0.285-0.433 0.285-0.433 0 0-6.070 4.923-10.994 10.994-10.994 6.073 0 10.994 4.923 10.994 10.994 0 0.285-0.431 0.285-0.431 0 0-4.103-6.743-4.106-6.743 0 0 0.285-0.444 0.285-0.444 0 0-4.093-6.753-4.093-6.753 0 0 0.285-0.444 0.285-0.444 0 0-4.085-6.74-4.114-6.74 0zM7.212 9.4c0.117-2.362 0.488-4.479 1.028-6.096 0.431-1.285 0.976-2.26 1.594-2.808-4.635 0.506-8.388 4.020-9.226 8.577 1.596-2.302 5.281-2.118 6.605 0.327zM14.336 9.294c-0.119-2.271-0.48-4.303-0.999-5.852-1.339-4.010-3.348-4.010-4.687 0-0.519 1.549-0.877 3.582-0.999 5.852 1.44-2.447 5.245-2.447 6.685 0zM21.38 9.073c-0.836-4.557-4.588-8.071-9.226-8.577 0.62 0.548 1.163 1.523 1.594 2.808 0.54 1.617 0.911 3.735 1.028 6.096 1.331-2.458 5.027-2.603 6.605-0.327z"></path>
<path d="M9.551 16.023v-2.232c-0.402 0.267-0.719 0.68-0.719 1.183 0 0.491 0.322 0.815 0.719 1.049zM9.984 16.716c-0.771-0.353-1.583-0.766-1.583-1.741 0-1.007 0.766-1.51 1.583-1.887v3.628z"></path>
<path d="M12.437 19.392v2.258c0.407-0.27 0.727-0.685 0.727-1.189 0-0.496-0.327-0.831-0.727-1.069zM12.006 18.697c0.773 0.358 1.591 0.784 1.591 1.765 0 1.010-0.771 1.513-1.591 1.887v-3.652z"></path>
<path d="M12.437 11.251c1.775 0.41 3.6 1.739 3.6 3.724 0 1.7-2.873 1.638-2.873 0 0-0.506-0.319-0.921-0.727-1.189v3.177c1.643 0.537 3.605 1.5 3.605 3.498 0 1.988-1.825 3.314-3.605 3.722-0.008 1.892-2.881 1.889-2.886-0.003-1.012-0.234-1.892-0.706-2.528-1.331-0.667-0.659-1.061-1.487-1.061-2.388 0-1.674 2.87-1.674 2.87 0 0 0.501 0.317 0.914 0.719 1.181v-3.174c-1.63-0.527-3.602-1.518-3.602-3.498 0-1.988 1.824-3.314 3.602-3.722 0.008-1.892 2.881-1.889 2.886 0.003zM9.984 11.256v0.345c-1.69 0.335-3.605 1.417-3.605 3.369 0 1.876 2.102 2.717 3.605 3.182v4.194c-0.812-0.371-1.583-0.872-1.583-1.884 0-1.106-2.009-1.106-2.009 0 0 0.781 0.348 1.503 0.934 2.079 0.745 0.737 1.648 1.087 2.658 1.287v0.348c0 1.331 2.022 1.331 2.022 0v-0.345c1.695-0.337 3.602-1.42 3.602-3.369 0-1.895-2.097-2.709-3.602-3.184v-4.191c0.815 0.371 1.591 0.872 1.591 1.889 0 1.077 2.006 1.121 2.006 0 0-1.949-1.905-3.034-3.597-3.371v-0.348c0-1.331-2.022-1.331-2.022 0z"></path>
</symbol>
<symbol id="icon-logo-main-white" viewBox="0 0 91 32">
<path fill="#fff" style="fill: var(--color2, #fff)" d="M13.608 4.836v12.942h-3.661v-5.047h-4.992v5.047h-3.661v-12.942h3.661v4.863h4.992v-4.863h3.661zM27.006 12.786c0 0.025-0.018 0.314-0.055 0.869h-7.285c0.148 0.518 0.431 0.918 0.851 1.202 0.431 0.271 0.968 0.407 1.609 0.407 0.481 0 0.894-0.068 1.239-0.203 0.357-0.136 0.715-0.357 1.072-0.666l1.849 1.923c-0.974 1.085-2.397 1.627-4.271 1.627-1.171 0-2.2-0.222-3.088-0.666s-1.578-1.060-2.071-1.849c-0.481-0.789-0.721-1.683-0.721-2.681 0-0.986 0.234-1.867 0.703-2.644 0.481-0.789 1.14-1.405 1.978-1.849s1.781-0.666 2.829-0.666c0.998 0 1.904 0.21 2.718 0.629 0.814 0.407 1.454 1.005 1.923 1.793 0.481 0.777 0.721 1.701 0.721 2.773zM21.663 10.086c-0.542 0-0.998 0.154-1.368 0.462-0.357 0.308-0.586 0.727-0.684 1.257h4.105c-0.099-0.53-0.333-0.949-0.703-1.257-0.357-0.308-0.807-0.462-1.35-0.462zM29.365 4.059h3.513v13.719h-3.513v-13.719zM35.901 4.059h3.513v13.719h-3.513v-13.719z"></path>
<path fill="#ff6b09" style="fill: var(--color3, #ff6b09)" d="M4.614 29.724h-1.849l-0.353 0.853h-0.944l1.775-3.982h0.91l1.781 3.982h-0.967l-0.353-0.853zM4.324 29.025l-0.631-1.525-0.631 1.525h1.263zM11.626 29.827v1.576h-0.853v-0.825h-2.81v0.825h-0.853l0.006-1.576h0.159c0.239-0.008 0.408-0.182 0.506-0.523s0.159-0.829 0.182-1.462l0.045-1.246h3.061v3.231h0.557zM8.776 27.927c-0.019 0.474-0.059 0.872-0.119 1.195-0.061 0.319-0.154 0.554-0.279 0.705h1.781v-2.48h-1.365l-0.017 0.58zM15.154 30.646c-0.406 0-0.774-0.087-1.104-0.262-0.326-0.178-0.584-0.423-0.774-0.734-0.186-0.315-0.279-0.669-0.279-1.064s0.093-0.747 0.279-1.058c0.19-0.315 0.448-0.559 0.774-0.734 0.33-0.178 0.7-0.267 1.109-0.267 0.345 0 0.656 0.061 0.933 0.182 0.281 0.121 0.516 0.296 0.705 0.523l-0.592 0.546c-0.269-0.311-0.603-0.466-1.001-0.466-0.246 0-0.466 0.055-0.66 0.165-0.193 0.106-0.345 0.256-0.455 0.449-0.106 0.193-0.159 0.413-0.159 0.66s0.053 0.466 0.159 0.66c0.11 0.193 0.262 0.345 0.455 0.455 0.193 0.106 0.413 0.159 0.66 0.159 0.398 0 0.732-0.157 1.001-0.472l0.592 0.546c-0.19 0.231-0.425 0.408-0.705 0.529s-0.594 0.182-0.939 0.182zM19.964 28.974h-0.637v1.604h-0.916v-3.982h0.916v1.61h0.66l1.047-1.61h0.973l-1.303 1.923 1.343 2.059h-1.047l-1.035-1.604zM23.502 26.596h0.916v2.594l1.9-2.594h0.865v3.982h-0.91v-2.588l-1.9 2.588h-0.87v-3.982zM29.198 26.596h0.916v2.594l1.9-2.594h0.865v3.982h-0.91v-2.588l-1.9 2.588h-0.87v-3.982zM31.036 26.34c-0.728 0-1.096-0.29-1.104-0.87h0.631c0.008 0.277 0.165 0.415 0.472 0.415 0.152 0 0.267-0.034 0.347-0.102 0.080-0.072 0.121-0.176 0.125-0.313h0.631c-0.004 0.284-0.097 0.501-0.279 0.649s-0.457 0.222-0.825 0.222z"></path>
<path fill="#fff" style="fill: var(--color2, #fff)" d="M40.226 29.724h-1.849l-0.353 0.853h-0.944l1.775-3.982h0.91l1.781 3.982h-0.967l-0.353-0.853zM39.936 29.025l-0.631-1.525-0.631 1.525h1.263zM46.75 26.596v3.982h-0.922v-1.633h-1.809v1.633h-0.922v-3.982h0.922v1.57h1.809v-1.57h0.922zM51.577 27.346h-1.894l0.006 3.231h-0.916v-3.982h2.81l-0.006 0.751zM56.224 26.596v3.982h-0.91v-3.231h-1.365l-0.028 0.831c-0.019 0.565-0.065 1.024-0.137 1.377-0.072 0.349-0.193 0.618-0.364 0.808-0.167 0.186-0.402 0.279-0.705 0.279-0.125 0-0.277-0.021-0.455-0.063l0.057-0.779c0.049 0.015 0.104 0.023 0.165 0.023 0.22 0 0.374-0.129 0.461-0.387 0.087-0.262 0.142-0.669 0.165-1.223l0.057-1.616h3.061zM58.242 26.596h0.916v2.594l1.9-2.594h0.865v3.982h-0.91v-2.588l-1.9 2.588h-0.87v-3.982zM63.938 26.596h0.916v2.594l1.9-2.594h0.865v3.982h-0.91v-2.588l-1.9 2.588h-0.87v-3.982zM65.776 26.34c-0.728 0-1.096-0.29-1.104-0.87h0.631c0.008 0.277 0.165 0.415 0.472 0.415 0.152 0 0.267-0.034 0.347-0.102 0.080-0.072 0.121-0.176 0.125-0.313h0.631c-0.004 0.284-0.097 0.501-0.279 0.649s-0.457 0.222-0.825 0.222zM71.518 30.646c-0.406 0-0.774-0.087-1.104-0.262-0.326-0.178-0.584-0.423-0.774-0.734-0.186-0.315-0.279-0.669-0.279-1.064s0.093-0.747 0.279-1.058c0.19-0.315 0.448-0.559 0.774-0.734 0.33-0.178 0.7-0.267 1.109-0.267 0.345 0 0.656 0.061 0.933 0.182 0.28 0.121 0.516 0.296 0.705 0.523l-0.592 0.546c-0.269-0.311-0.603-0.466-1.001-0.466-0.247 0-0.467 0.055-0.66 0.165-0.193 0.106-0.345 0.256-0.455 0.449-0.106 0.193-0.159 0.413-0.159 0.66s0.053 0.466 0.159 0.66c0.11 0.193 0.262 0.345 0.455 0.455 0.193 0.106 0.413 0.159 0.66 0.159 0.398 0 0.732-0.157 1.001-0.472l0.592 0.546c-0.19 0.231-0.425 0.408-0.705 0.529s-0.594 0.182-0.939 0.182zM76.329 28.974h-0.637v1.604h-0.916v-3.982h0.916v1.61h0.66l1.047-1.61h0.973l-1.303 1.923 1.343 2.059h-1.047l-1.035-1.604zM79.866 26.596h0.916v2.594l1.9-2.594h0.865v3.982h-0.91v-2.588l-1.9 2.588h-0.87v-3.982zM85.562 26.596h0.916v2.594l1.9-2.594h0.865v3.982h-0.91v-2.588l-1.9 2.588h-0.87v-3.982zM87.4 26.34c-0.728 0-1.096-0.29-1.104-0.87h0.631c0.008 0.277 0.165 0.415 0.472 0.415 0.151 0 0.267-0.034 0.347-0.102 0.080-0.072 0.122-0.176 0.125-0.313h0.631c-0.004 0.284-0.097 0.501-0.279 0.649s-0.457 0.222-0.825 0.222z"></path>
<path fill="#fff" style="fill: var(--color2, #fff)" d="M74.263 14.949v2.829h-10.391v-12.942h10.15v2.829h-6.527v2.182h5.75v2.736h-5.75v2.367h6.767zM89.348 4.836v12.942h-3.014l-5.713-6.896v6.896h-3.587v-12.942h3.014l5.713 6.896v-6.896h3.587z"></path>
<path fill="#ff6b09" style="fill: var(--color3, #ff6b09)" d="M58.695 11.062c-0.189-0.423-0.45-0.84-0.831-1.322-0.962-1.209-1.255-3.905-1.258-3.931-0.013-0.129-0.104-0.236-0.225-0.275-0.124-0.039-0.257-0.003-0.345 0.094-1.147 1.283-0.665 3.265-0.404 4.057 0.072 0.217 0.15 0.472 0.205 0.731 0.424 2.091-0.394 3.038-0.587 3.229-0.186 0.052-0.313 0.026-0.43-0.1-0.404-0.443-0.538-1.894-0.349-3.785 0.039-0.385 0.029-0.731-0.026-1.054-0.399-2.324-1.86-3.815-2.233-4.338-1.023-1.513-1.128-4.031-1.131-4.053-0.003-0.12-0.072-0.226-0.179-0.278-0.104-0.052-0.231-0.045-0.329 0.023-1.708 1.16-1.561 3.956-1.323 5.518 0.055 0.362 0.163 0.731 0.349 1.196 0.662 1.665-0.13 3.814-0.137 3.834s-0.013 0.036-0.016 0.055c-0.101 0.53-0.27 0.847-0.46 0.847-0.020 0-0.039-0.003-0.062-0.010-0.231-0.048-0.352-0.294-0.355-0.507-0.013-2.757-2.78-3.685-2.81-3.694-0.124-0.039-0.261-0.003-0.345 0.097-0.088 0.1-0.104 0.239-0.046 0.356 0.033 0.068 0.137 0.365 0.065 1.416-0.062 0.944-0.235 1.878-0.512 2.773-0.658 2.146-0.554 4.179-0.548 4.276 0.506 5.505 8.423 6.469 13.122 3.368 0.515-0.339 0.935-0.727 1.245-1.154 1.734-2.392 0.714-5.64-0.046-7.366zM46.652 16.321c0.010 0.178-0.127 0.33-0.306 0.339h-0.020c-0.173 0-0.316-0.132-0.326-0.304-0.029-0.472-0.023-0.966 0.013-1.503 0.013-0.178 0.169-0.31 0.349-0.301 0.179 0.013 0.316 0.168 0.303 0.346-0.036 0.511-0.042 0.976-0.013 1.422zM46.811 13.457c-0.020 0.165-0.16 0.284-0.323 0.284-0.013 0-0.026 0-0.042-0.003-0.176-0.023-0.303-0.181-0.284-0.359l0.156-1.248c0.023-0.175 0.182-0.301 0.365-0.281 0.179 0.023 0.306 0.184 0.284 0.362l-0.156 1.244z"></path>
<path fill="#ff6b09" style="fill: var(--color3, #ff6b09)" d="M56.489 4.422c-0.178-0.027-0.3-0.192-0.272-0.368 0.020-0.131 0.138-0.804 0.458-1.142 0.123-0.13 0.329-0.137 0.461-0.015s0.138 0.327 0.015 0.457c-0.135 0.143-0.251 0.553-0.289 0.798-0.028 0.174-0.192 0.297-0.372 0.27z"></path>
<path fill="#ff6b09" style="fill: var(--color3, #ff6b09)" d="M44.608 6.032c-0.062-0.24-0.217-0.637-0.366-0.766-0.135-0.118-0.149-0.322-0.030-0.456s0.324-0.148 0.46-0.030c0.351 0.305 0.535 0.963 0.568 1.092 0.045 0.173-0.060 0.349-0.235 0.393-0.178 0.044-0.353-0.063-0.397-0.232z"></path>
</symbol>
<symbol id="icon-logo-main" viewBox="0 0 91 32">
<path fill="#111518" style="fill: var(--color4, #111518)" d="M13.608 4.836v12.942h-3.661v-5.047h-4.992v5.047h-3.661v-12.942h3.661v4.863h4.992v-4.863h3.661zM27.006 12.786c0 0.025-0.018 0.314-0.055 0.869h-7.285c0.148 0.518 0.431 0.918 0.851 1.202 0.431 0.271 0.968 0.407 1.609 0.407 0.481 0 0.894-0.068 1.239-0.203 0.357-0.136 0.715-0.357 1.072-0.666l1.849 1.923c-0.974 1.085-2.397 1.627-4.271 1.627-1.171 0-2.2-0.222-3.088-0.666s-1.578-1.060-2.071-1.849c-0.481-0.789-0.721-1.683-0.721-2.681 0-0.986 0.234-1.867 0.703-2.644 0.481-0.789 1.14-1.405 1.978-1.849s1.781-0.666 2.829-0.666c0.998 0 1.904 0.21 2.718 0.629 0.814 0.407 1.454 1.005 1.923 1.793 0.481 0.777 0.721 1.701 0.721 2.773zM21.663 10.086c-0.542 0-0.998 0.154-1.368 0.462-0.357 0.308-0.586 0.727-0.684 1.257h4.105c-0.099-0.53-0.333-0.949-0.703-1.257-0.357-0.308-0.807-0.462-1.35-0.462zM29.365 4.059h3.513v13.719h-3.513v-13.719zM35.901 4.059h3.513v13.719h-3.513v-13.719z"></path>
<path fill="#ff6b09" style="fill: var(--color3, #ff6b09)" d="M4.614 29.724h-1.849l-0.353 0.853h-0.944l1.775-3.982h0.91l1.781 3.982h-0.967l-0.353-0.853zM4.324 29.025l-0.631-1.525-0.631 1.525h1.263zM11.626 29.827v1.576h-0.853v-0.825h-2.81v0.825h-0.853l0.006-1.576h0.159c0.239-0.008 0.408-0.182 0.506-0.523s0.159-0.829 0.182-1.462l0.045-1.246h3.061v3.231h0.557zM8.776 27.927c-0.019 0.474-0.059 0.872-0.119 1.195-0.061 0.319-0.154 0.554-0.279 0.705h1.781v-2.48h-1.365l-0.017 0.58zM15.154 30.646c-0.406 0-0.774-0.087-1.104-0.262-0.326-0.178-0.584-0.423-0.774-0.734-0.186-0.315-0.279-0.669-0.279-1.064s0.093-0.747 0.279-1.058c0.19-0.315 0.448-0.559 0.774-0.734 0.33-0.178 0.7-0.267 1.109-0.267 0.345 0 0.656 0.061 0.933 0.182 0.281 0.121 0.516 0.296 0.705 0.523l-0.592 0.546c-0.269-0.311-0.603-0.466-1.001-0.466-0.246 0-0.466 0.055-0.66 0.165-0.193 0.106-0.345 0.256-0.455 0.449-0.106 0.193-0.159 0.413-0.159 0.66s0.053 0.466 0.159 0.66c0.11 0.193 0.262 0.345 0.455 0.455 0.193 0.106 0.413 0.159 0.66 0.159 0.398 0 0.732-0.157 1.001-0.472l0.592 0.546c-0.19 0.231-0.425 0.408-0.705 0.529s-0.594 0.182-0.939 0.182zM19.964 28.974h-0.637v1.604h-0.916v-3.982h0.916v1.61h0.66l1.047-1.61h0.973l-1.303 1.923 1.343 2.059h-1.047l-1.035-1.604zM23.502 26.596h0.916v2.594l1.9-2.594h0.865v3.982h-0.91v-2.588l-1.9 2.588h-0.87v-3.982zM29.198 26.596h0.916v2.594l1.9-2.594h0.865v3.982h-0.91v-2.588l-1.9 2.588h-0.87v-3.982zM31.036 26.34c-0.728 0-1.096-0.29-1.104-0.87h0.631c0.008 0.277 0.165 0.415 0.472 0.415 0.152 0 0.267-0.034 0.347-0.102 0.080-0.072 0.121-0.176 0.125-0.313h0.631c-0.004 0.284-0.097 0.501-0.279 0.649s-0.457 0.222-0.825 0.222z"></path>
<path fill="#111518" style="fill: var(--color4, #111518)" d="M40.226 29.724h-1.849l-0.353 0.853h-0.944l1.775-3.982h0.91l1.781 3.982h-0.967l-0.353-0.853zM39.936 29.025l-0.631-1.525-0.631 1.525h1.263zM46.75 26.596v3.982h-0.922v-1.633h-1.809v1.633h-0.922v-3.982h0.922v1.57h1.809v-1.57h0.922zM51.577 27.346h-1.894l0.006 3.231h-0.916v-3.982h2.81l-0.006 0.751zM56.224 26.596v3.982h-0.91v-3.231h-1.365l-0.028 0.831c-0.019 0.565-0.065 1.024-0.137 1.377-0.072 0.349-0.193 0.618-0.364 0.808-0.167 0.186-0.402 0.279-0.705 0.279-0.125 0-0.277-0.021-0.455-0.063l0.057-0.779c0.049 0.015 0.104 0.023 0.165 0.023 0.22 0 0.374-0.129 0.461-0.387 0.087-0.262 0.142-0.669 0.165-1.223l0.057-1.616h3.061zM58.242 26.596h0.916v2.594l1.9-2.594h0.865v3.982h-0.91v-2.588l-1.9 2.588h-0.87v-3.982zM63.938 26.596h0.916v2.594l1.9-2.594h0.865v3.982h-0.91v-2.588l-1.9 2.588h-0.87v-3.982zM65.776 26.34c-0.728 0-1.096-0.29-1.104-0.87h0.631c0.008 0.277 0.165 0.415 0.472 0.415 0.152 0 0.267-0.034 0.347-0.102 0.080-0.072 0.121-0.176 0.125-0.313h0.631c-0.004 0.284-0.097 0.501-0.279 0.649s-0.457 0.222-0.825 0.222zM71.518 30.646c-0.406 0-0.774-0.087-1.104-0.262-0.326-0.178-0.584-0.423-0.774-0.734-0.186-0.315-0.279-0.669-0.279-1.064s0.093-0.747 0.279-1.058c0.19-0.315 0.448-0.559 0.774-0.734 0.33-0.178 0.7-0.267 1.109-0.267 0.345 0 0.656 0.061 0.933 0.182 0.28 0.121 0.516 0.296 0.705 0.523l-0.592 0.546c-0.269-0.311-0.603-0.466-1.001-0.466-0.247 0-0.467 0.055-0.66 0.165-0.193 0.106-0.345 0.256-0.455 0.449-0.106 0.193-0.159 0.413-0.159 0.66s0.053 0.466 0.159 0.66c0.11 0.193 0.262 0.345 0.455 0.455 0.193 0.106 0.413 0.159 0.66 0.159 0.398 0 0.732-0.157 1.001-0.472l0.592 0.546c-0.19 0.231-0.425 0.408-0.705 0.529s-0.594 0.182-0.939 0.182zM76.329 28.974h-0.637v1.604h-0.916v-3.982h0.916v1.61h0.66l1.047-1.61h0.973l-1.303 1.923 1.343 2.059h-1.047l-1.035-1.604zM79.866 26.596h0.916v2.594l1.9-2.594h0.865v3.982h-0.91v-2.588l-1.9 2.588h-0.87v-3.982zM85.562 26.596h0.916v2.594l1.9-2.594h0.865v3.982h-0.91v-2.588l-1.9 2.588h-0.87v-3.982zM87.4 26.34c-0.728 0-1.096-0.29-1.104-0.87h0.631c0.008 0.277 0.165 0.415 0.472 0.415 0.151 0 0.267-0.034 0.347-0.102 0.080-0.072 0.122-0.176 0.125-0.313h0.631c-0.004 0.284-0.097 0.501-0.279 0.649s-0.457 0.222-0.825 0.222z"></path>
<path fill="#111518" style="fill: var(--color4, #111518)" d="M74.263 14.949v2.829h-10.391v-12.942h10.15v2.829h-6.527v2.182h5.75v2.736h-5.75v2.367h6.767zM89.348 4.836v12.942h-3.014l-5.713-6.896v6.896h-3.587v-12.942h3.014l5.713 6.896v-6.896h3.587z"></path>
<path fill="#ff6b09" style="fill: var(--color3, #ff6b09)" d="M58.695 11.062c-0.189-0.423-0.45-0.84-0.831-1.322-0.962-1.209-1.255-3.905-1.258-3.931-0.013-0.129-0.104-0.236-0.225-0.275-0.124-0.039-0.257-0.003-0.345 0.094-1.147 1.283-0.665 3.265-0.404 4.057 0.072 0.217 0.15 0.472 0.205 0.731 0.424 2.091-0.394 3.038-0.587 3.229-0.186 0.052-0.313 0.026-0.43-0.1-0.404-0.443-0.538-1.894-0.349-3.785 0.039-0.385 0.029-0.731-0.026-1.054-0.399-2.324-1.86-3.815-2.233-4.338-1.023-1.513-1.128-4.031-1.131-4.053-0.003-0.12-0.072-0.226-0.179-0.278-0.104-0.052-0.231-0.045-0.329 0.023-1.708 1.16-1.561 3.956-1.323 5.518 0.055 0.362 0.163 0.731 0.349 1.196 0.662 1.665-0.13 3.814-0.137 3.834s-0.013 0.036-0.016 0.055c-0.101 0.53-0.27 0.847-0.46 0.847-0.020 0-0.039-0.003-0.062-0.010-0.231-0.048-0.352-0.294-0.355-0.507-0.013-2.757-2.78-3.685-2.81-3.694-0.124-0.039-0.261-0.003-0.345 0.097-0.088 0.1-0.104 0.239-0.046 0.356 0.033 0.068 0.137 0.365 0.065 1.416-0.062 0.944-0.235 1.878-0.512 2.773-0.658 2.146-0.554 4.179-0.548 4.276 0.506 5.505 8.423 6.469 13.122 3.368 0.515-0.339 0.935-0.727 1.245-1.154 1.734-2.392 0.714-5.64-0.046-7.366zM46.652 16.321c0.010 0.178-0.127 0.33-0.306 0.339h-0.020c-0.173 0-0.316-0.132-0.326-0.304-0.029-0.472-0.023-0.966 0.013-1.503 0.013-0.178 0.169-0.31 0.349-0.301 0.179 0.013 0.316 0.168 0.303 0.346-0.036 0.511-0.042 0.976-0.013 1.422zM46.811 13.457c-0.020 0.165-0.16 0.284-0.323 0.284-0.013 0-0.026 0-0.042-0.003-0.176-0.023-0.303-0.181-0.284-0.359l0.156-1.248c0.023-0.175 0.182-0.301 0.365-0.281 0.179 0.023 0.306 0.184 0.284 0.362l-0.156 1.244z"></path>
<path fill="#ff6b09" style="fill: var(--color3, #ff6b09)" d="M56.489 4.422c-0.178-0.027-0.3-0.192-0.272-0.368 0.020-0.131 0.138-0.804 0.458-1.142 0.123-0.13 0.329-0.137 0.461-0.015s0.138 0.327 0.015 0.457c-0.135 0.143-0.251 0.553-0.289 0.798-0.028 0.174-0.192 0.297-0.372 0.27z"></path>
<path fill="#ff6b09" style="fill: var(--color3, #ff6b09)" d="M44.608 6.032c-0.062-0.24-0.217-0.637-0.366-0.766-0.135-0.118-0.149-0.322-0.030-0.456s0.324-0.148 0.46-0.030c0.351 0.305 0.535 0.963 0.568 1.092 0.045 0.173-0.060 0.349-0.235 0.393-0.178 0.044-0.353-0.063-0.397-0.232z"></path>
</symbol>
<symbol id="icon-logo-phone-white" viewBox="0 0 88 32">
<path fill="#fff" style="fill: var(--color2, #fff)" d="M12.345 4.848v12.975h-3.67v-5.060h-5.005v5.060h-3.67v-12.975h3.67v4.875h5.005v-4.875h3.67z"></path>
<path fill="#fff" style="fill: var(--color2, #fff)" d="M25.777 12.818c0 0.025-0.019 0.315-0.056 0.871h-7.303c0.148 0.519 0.433 0.921 0.853 1.205 0.433 0.272 0.97 0.408 1.613 0.408 0.482 0 0.896-0.068 1.242-0.204 0.358-0.136 0.717-0.358 1.075-0.667l1.854 1.928c-0.976 1.087-2.403 1.631-4.282 1.631-1.174 0-2.206-0.222-3.096-0.667s-1.582-1.063-2.076-1.854c-0.482-0.791-0.723-1.687-0.723-2.688 0-0.989 0.235-1.872 0.704-2.651 0.482-0.791 1.143-1.409 1.983-1.854s1.786-0.667 2.836-0.667c1.001 0 1.909 0.21 2.725 0.63 0.816 0.408 1.458 1.007 1.928 1.798 0.482 0.778 0.723 1.705 0.723 2.78zM20.42 10.112c-0.544 0-1.001 0.154-1.372 0.463-0.358 0.309-0.587 0.729-0.686 1.26h4.115c-0.099-0.531-0.334-0.951-0.704-1.26-0.358-0.309-0.809-0.463-1.353-0.463z"></path>
<path fill="#fff" style="fill: var(--color2, #fff)" d="M28.142 4.069h3.522v13.753h-3.522v-13.753z"></path>
<path fill="#fff" style="fill: var(--color2, #fff)" d="M34.694 4.069h3.522v13.753h-3.522v-13.753z"></path>
<path fill="#fff" style="fill: var(--color2, #fff)" d="M3.328 29.8h-1.854l-0.354 0.855h-0.947l1.779-3.992h0.913l1.785 3.992h-0.97l-0.354-0.855zM3.037 29.098l-0.633-1.528-0.633 1.528h1.266z"></path>
<path fill="#fff" style="fill: var(--color2, #fff)" d="M10.358 29.902v1.58h-0.855v-0.827h-2.817v0.827h-0.856l0.006-1.58h0.16c0.24-0.008 0.409-0.183 0.508-0.525s0.16-0.831 0.183-1.466l0.046-1.249h3.068v3.239h0.559zM7.501 27.997c-0.019 0.475-0.059 0.874-0.12 1.198-0.061 0.319-0.154 0.555-0.279 0.707h1.785v-2.487h-1.369l-0.017 0.582z"></path>
<path fill="#fff" style="fill: var(--color2, #fff)" d="M13.895 30.724c-0.407 0-0.776-0.087-1.106-0.262-0.327-0.179-0.585-0.424-0.776-0.736-0.186-0.316-0.28-0.671-0.28-1.066s0.093-0.749 0.28-1.061c0.19-0.316 0.449-0.561 0.776-0.736 0.331-0.179 0.702-0.268 1.112-0.268 0.346 0 0.658 0.061 0.935 0.183 0.281 0.122 0.517 0.297 0.707 0.525l-0.593 0.548c-0.27-0.312-0.604-0.468-1.004-0.468-0.247 0-0.468 0.055-0.662 0.165-0.194 0.106-0.346 0.257-0.456 0.451-0.106 0.194-0.16 0.414-0.16 0.662s0.053 0.468 0.16 0.662c0.11 0.194 0.262 0.346 0.456 0.456 0.194 0.106 0.414 0.16 0.662 0.16 0.399 0 0.734-0.158 1.004-0.473l0.593 0.548c-0.19 0.232-0.426 0.409-0.707 0.53s-0.595 0.183-0.941 0.183z"></path>
<path fill="#fff" style="fill: var(--color2, #fff)" d="M18.717 29.047h-0.639v1.608h-0.918v-3.992h0.918v1.614h0.662l1.049-1.614h0.975l-1.306 1.928 1.346 2.065h-1.049l-1.038-1.608z"></path>
<path fill="#fff" style="fill: var(--color2, #fff)" d="M22.264 26.663h0.918v2.601l1.905-2.601h0.867v3.992h-0.913v-2.595l-1.905 2.595h-0.873v-3.992z"></path>
<path fill="#fff" style="fill: var(--color2, #fff)" d="M27.975 26.663h0.918v2.601l1.905-2.601h0.867v3.992h-0.913v-2.595l-1.905 2.595h-0.873v-3.992zM29.817 26.406c-0.73 0-1.099-0.291-1.106-0.873h0.633c0.008 0.278 0.165 0.416 0.473 0.416 0.152 0 0.268-0.034 0.348-0.103 0.080-0.072 0.122-0.177 0.126-0.314h0.633c-0.004 0.285-0.097 0.502-0.279 0.65s-0.458 0.222-0.827 0.222z"></path>
<path fill="#fff" style="fill: var(--color2, #fff)" d="M39.031 29.8h-1.854l-0.354 0.855h-0.947l1.779-3.992h0.912l1.785 3.992h-0.969l-0.354-0.855zM38.74 29.098l-0.633-1.528-0.633 1.528h1.266z"></path>
<path fill="#fff" style="fill: var(--color2, #fff)" d="M45.571 26.663v3.992h-0.924v-1.637h-1.814v1.637h-0.924v-3.992h0.924v1.574h1.814v-1.574h0.924z"></path>
<path fill="#fff" style="fill: var(--color2, #fff)" d="M50.41 27.416h-1.899l0.006 3.239h-0.918v-3.992h2.817l-0.006 0.753z"></path>
<path fill="#fff" style="fill: var(--color2, #fff)" d="M55.069 26.663v3.992h-0.913v-3.239h-1.369l-0.028 0.833c-0.019 0.567-0.065 1.027-0.137 1.38-0.072 0.35-0.194 0.62-0.365 0.81-0.167 0.186-0.403 0.279-0.707 0.279-0.125 0-0.278-0.021-0.456-0.063l0.057-0.781c0.049 0.015 0.105 0.023 0.165 0.023 0.221 0 0.374-0.129 0.462-0.388 0.087-0.262 0.143-0.671 0.165-1.226l0.057-1.62h3.068z"></path>
<path fill="#fff" style="fill: var(--color2, #fff)" d="M57.092 26.663h0.918v2.601l1.905-2.601h0.867v3.992h-0.913v-2.595l-1.905 2.595h-0.873v-3.992z"></path>
<path fill="#fff" style="fill: var(--color2, #fff)" d="M62.803 26.663h0.918v2.601l1.905-2.601h0.867v3.992h-0.913v-2.595l-1.905 2.595h-0.873v-3.992zM64.645 26.406c-0.73 0-1.099-0.291-1.107-0.873h0.633c0.007 0.278 0.165 0.416 0.473 0.416 0.152 0 0.268-0.034 0.348-0.103 0.080-0.072 0.122-0.177 0.125-0.314h0.633c-0.004 0.285-0.097 0.502-0.279 0.65s-0.458 0.222-0.827 0.222z"></path>
<path fill="#fff" style="fill: var(--color2, #fff)" d="M70.401 30.724c-0.407 0-0.776-0.087-1.106-0.262-0.327-0.179-0.586-0.424-0.776-0.736-0.186-0.316-0.279-0.671-0.279-1.066s0.093-0.749 0.279-1.061c0.19-0.316 0.449-0.561 0.776-0.736 0.331-0.179 0.701-0.268 1.112-0.268 0.346 0 0.658 0.061 0.935 0.183 0.281 0.122 0.517 0.297 0.707 0.525l-0.593 0.548c-0.27-0.312-0.605-0.468-1.004-0.468-0.247 0-0.468 0.055-0.662 0.165-0.194 0.106-0.346 0.257-0.456 0.451-0.106 0.194-0.16 0.414-0.16 0.662s0.053 0.468 0.16 0.662c0.11 0.194 0.262 0.346 0.456 0.456 0.194 0.106 0.414 0.16 0.662 0.16 0.399 0 0.734-0.158 1.004-0.473l0.593 0.548c-0.19 0.232-0.426 0.409-0.707 0.53s-0.595 0.183-0.941 0.183z"></path>
<path fill="#fff" style="fill: var(--color2, #fff)" d="M75.224 29.047h-0.639v1.608h-0.918v-3.992h0.918v1.614h0.662l1.049-1.614h0.975l-1.306 1.928 1.346 2.065h-1.049l-1.038-1.608z"></path>
<path fill="#fff" style="fill: var(--color2, #fff)" d="M78.771 26.663h0.918v2.601l1.905-2.601h0.867v3.992h-0.913v-2.595l-1.905 2.595h-0.873v-3.992z"></path>
<path fill="#fff" style="fill: var(--color2, #fff)" d="M84.481 26.663h0.918v2.601l1.905-2.601h0.867v3.992h-0.913v-2.595l-1.905 2.595h-0.873v-3.992zM86.324 26.406c-0.73 0-1.099-0.291-1.106-0.873h0.633c0.008 0.278 0.165 0.416 0.473 0.416 0.152 0 0.268-0.034 0.348-0.103 0.080-0.072 0.122-0.177 0.125-0.314h0.633c-0.004 0.285-0.097 0.502-0.279 0.65s-0.458 0.222-0.827 0.222z"></path>
<path fill="#fff" style="fill: var(--color2, #fff)" d="M73.153 14.987v2.836h-10.417v-12.975h10.176v2.836h-6.543v2.187h5.765v2.743h-5.765v2.373h6.784z"></path>
<path fill="#fff" style="fill: var(--color2, #fff)" d="M88.276 4.848v12.975h-3.021l-5.728-6.914v6.914h-3.596v-12.975h3.021l5.728 6.914v-6.914h3.596z"></path>
<path fill="#ff6b09" style="fill: var(--color3, #ff6b09)" d="M57.546 11.090c-0.189-0.424-0.451-0.842-0.833-1.325-0.964-1.212-1.258-3.915-1.261-3.94-0.013-0.13-0.105-0.237-0.225-0.275-0.124-0.039-0.258-0.003-0.346 0.094-1.15 1.286-0.667 3.273-0.405 4.067 0.072 0.217 0.15 0.473 0.206 0.732 0.425 2.097-0.395 3.046-0.588 3.237-0.186 0.052-0.314 0.026-0.431-0.101-0.405-0.444-0.539-1.899-0.35-3.795 0.039-0.386 0.029-0.732-0.026-1.056-0.4-2.33-1.865-3.825-2.238-4.349-1.026-1.517-1.131-4.041-1.134-4.064-0.003-0.12-0.072-0.227-0.18-0.279-0.105-0.052-0.232-0.045-0.33 0.023-1.712 1.163-1.565 3.966-1.327 5.532 0.056 0.363 0.163 0.732 0.35 1.199 0.663 1.669-0.131 3.824-0.137 3.843s-0.013 0.036-0.016 0.055c-0.101 0.531-0.271 0.849-0.461 0.849-0.020 0-0.039-0.003-0.062-0.010-0.232-0.049-0.353-0.295-0.356-0.509-0.013-2.764-2.787-3.694-2.817-3.704-0.124-0.039-0.261-0.003-0.346 0.097-0.088 0.1-0.105 0.24-0.046 0.356 0.033 0.068 0.137 0.366 0.065 1.419-0.062 0.946-0.235 1.883-0.513 2.78-0.66 2.152-0.555 4.19-0.549 4.287 0.507 5.519 8.444 6.486 13.155 3.377 0.516-0.34 0.938-0.729 1.248-1.157 1.738-2.398 0.716-5.655-0.046-7.385zM45.472 16.362c0.010 0.178-0.127 0.33-0.307 0.34h-0.020c-0.173 0-0.317-0.133-0.327-0.305-0.029-0.473-0.023-0.969 0.013-1.507 0.013-0.178 0.17-0.311 0.35-0.301 0.18 0.013 0.317 0.168 0.304 0.347-0.036 0.512-0.042 0.979-0.013 1.426zM45.632 13.491c-0.020 0.165-0.16 0.285-0.323 0.285-0.013 0-0.026 0-0.042-0.003-0.176-0.023-0.304-0.181-0.284-0.36l0.157-1.251c0.023-0.175 0.183-0.301 0.366-0.282 0.18 0.023 0.307 0.185 0.284 0.363l-0.157 1.248z"></path>
<path fill="#ff6b09" style="fill: var(--color3, #ff6b09)" d="M55.335 4.433c-0.178-0.027-0.3-0.193-0.273-0.369 0.020-0.132 0.138-0.806 0.459-1.145 0.123-0.131 0.33-0.138 0.462-0.015s0.138 0.327 0.015 0.458c-0.136 0.144-0.251 0.554-0.29 0.8-0.028 0.175-0.192 0.298-0.373 0.271z"></path>
<path fill="#ff6b09" style="fill: var(--color3, #ff6b09)" d="M43.423 6.048c-0.063-0.241-0.218-0.638-0.367-0.768-0.136-0.118-0.149-0.323-0.030-0.457s0.325-0.149 0.461-0.030c0.352 0.306 0.536 0.966 0.569 1.094 0.045 0.173-0.061 0.35-0.235 0.394-0.178 0.045-0.353-0.063-0.398-0.233z"></path>
</symbol>
<symbol id="icon-logo-phone" viewBox="0 0 88 32">
<path fill="#111518" style="fill: var(--color4, #111518)" d="M12.345 4.848v12.975h-3.67v-5.060h-5.005v5.060h-3.67v-12.975h3.67v4.875h5.005v-4.875h3.67z"></path>
<path fill="#111518" style="fill: var(--color4, #111518)" d="M25.777 12.818c0 0.025-0.019 0.315-0.056 0.871h-7.303c0.148 0.519 0.433 0.921 0.853 1.205 0.433 0.272 0.97 0.408 1.613 0.408 0.482 0 0.896-0.068 1.242-0.204 0.358-0.136 0.717-0.358 1.075-0.667l1.854 1.928c-0.976 1.087-2.403 1.631-4.282 1.631-1.174 0-2.206-0.222-3.096-0.667s-1.582-1.063-2.076-1.854c-0.482-0.791-0.723-1.687-0.723-2.688 0-0.989 0.235-1.872 0.704-2.651 0.482-0.791 1.143-1.409 1.983-1.854s1.786-0.667 2.836-0.667c1.001 0 1.909 0.21 2.725 0.63 0.816 0.408 1.458 1.007 1.928 1.798 0.482 0.778 0.723 1.705 0.723 2.78zM20.42 10.112c-0.544 0-1.001 0.154-1.372 0.463-0.358 0.309-0.587 0.729-0.686 1.26h4.115c-0.099-0.531-0.334-0.951-0.704-1.26-0.358-0.309-0.809-0.463-1.353-0.463z"></path>
<path fill="#111518" style="fill: var(--color4, #111518)" d="M28.142 4.069h3.522v13.753h-3.522v-13.753z"></path>
<path fill="#111518" style="fill: var(--color4, #111518)" d="M34.694 4.069h3.522v13.753h-3.522v-13.753z"></path>
<path fill="#111518" style="fill: var(--color4, #111518)" d="M3.328 29.8h-1.854l-0.354 0.855h-0.947l1.779-3.992h0.913l1.785 3.992h-0.97l-0.354-0.855zM3.037 29.098l-0.633-1.528-0.633 1.528h1.266z"></path>
<path fill="#111518" style="fill: var(--color4, #111518)" d="M10.358 29.902v1.58h-0.855v-0.827h-2.817v0.827h-0.856l0.006-1.58h0.16c0.24-0.008 0.409-0.183 0.508-0.525s0.16-0.831 0.183-1.466l0.046-1.249h3.068v3.239h0.559zM7.501 27.997c-0.019 0.475-0.059 0.874-0.12 1.198-0.061 0.319-0.154 0.555-0.279 0.707h1.785v-2.487h-1.369l-0.017 0.582z"></path>
<path fill="#111518" style="fill: var(--color4, #111518)" d="M13.895 30.724c-0.407 0-0.776-0.087-1.106-0.262-0.327-0.179-0.585-0.424-0.776-0.736-0.186-0.316-0.28-0.671-0.28-1.066s0.093-0.749 0.28-1.061c0.19-0.316 0.449-0.561 0.776-0.736 0.331-0.179 0.702-0.268 1.112-0.268 0.346 0 0.658 0.061 0.935 0.183 0.281 0.122 0.517 0.297 0.707 0.525l-0.593 0.548c-0.27-0.312-0.604-0.468-1.004-0.468-0.247 0-0.468 0.055-0.662 0.165-0.194 0.106-0.346 0.257-0.456 0.451-0.106 0.194-0.16 0.414-0.16 0.662s0.053 0.468 0.16 0.662c0.11 0.194 0.262 0.346 0.456 0.456 0.194 0.106 0.414 0.16 0.662 0.16 0.399 0 0.734-0.158 1.004-0.473l0.593 0.548c-0.19 0.232-0.426 0.409-0.707 0.53s-0.595 0.183-0.941 0.183z"></path>
<path fill="#111518" style="fill: var(--color4, #111518)" d="M18.717 29.047h-0.639v1.608h-0.918v-3.992h0.918v1.614h0.662l1.049-1.614h0.975l-1.306 1.928 1.346 2.065h-1.049l-1.038-1.608z"></path>
<path fill="#111518" style="fill: var(--color4, #111518)" d="M22.264 26.663h0.918v2.601l1.905-2.601h0.867v3.992h-0.913v-2.595l-1.905 2.595h-0.873v-3.992z"></path>
<path fill="#111518" style="fill: var(--color4, #111518)" d="M27.975 26.663h0.918v2.601l1.905-2.601h0.867v3.992h-0.913v-2.595l-1.905 2.595h-0.873v-3.992zM29.817 26.406c-0.73 0-1.099-0.291-1.106-0.873h0.633c0.008 0.278 0.165 0.416 0.473 0.416 0.152 0 0.268-0.034 0.348-0.103 0.080-0.072 0.122-0.177 0.126-0.314h0.633c-0.004 0.285-0.097 0.502-0.279 0.65s-0.458 0.222-0.827 0.222z"></path>
<path fill="#111518" style="fill: var(--color4, #111518)" d="M39.031 29.8h-1.854l-0.354 0.855h-0.947l1.779-3.992h0.912l1.785 3.992h-0.969l-0.354-0.855zM38.74 29.098l-0.633-1.528-0.633 1.528h1.266z"></path>
<path fill="#111518" style="fill: var(--color4, #111518)" d="M45.571 26.663v3.992h-0.924v-1.637h-1.814v1.637h-0.924v-3.992h0.924v1.574h1.814v-1.574h0.924z"></path>
<path fill="#111518" style="fill: var(--color4, #111518)" d="M50.41 27.416h-1.899l0.006 3.239h-0.918v-3.992h2.817l-0.006 0.753z"></path>
<path fill="#111518" style="fill: var(--color4, #111518)" d="M55.069 26.663v3.992h-0.913v-3.239h-1.369l-0.028 0.833c-0.019 0.567-0.065 1.027-0.137 1.38-0.072 0.35-0.194 0.62-0.365 0.81-0.167 0.186-0.403 0.279-0.707 0.279-0.125 0-0.278-0.021-0.456-0.063l0.057-0.781c0.049 0.015 0.105 0.023 0.165 0.023 0.221 0 0.374-0.129 0.462-0.388 0.087-0.262 0.143-0.671 0.165-1.226l0.057-1.62h3.068z"></path>
<path fill="#111518" style="fill: var(--color4, #111518)" d="M57.092 26.663h0.918v2.601l1.905-2.601h0.867v3.992h-0.913v-2.595l-1.905 2.595h-0.873v-3.992z"></path>
<path fill="#111518" style="fill: var(--color4, #111518)" d="M62.803 26.663h0.918v2.601l1.905-2.601h0.867v3.992h-0.913v-2.595l-1.905 2.595h-0.873v-3.992zM64.645 26.406c-0.73 0-1.099-0.291-1.107-0.873h0.633c0.007 0.278 0.165 0.416 0.473 0.416 0.152 0 0.268-0.034 0.348-0.103 0.080-0.072 0.122-0.177 0.125-0.314h0.633c-0.004 0.285-0.097 0.502-0.279 0.65s-0.458 0.222-0.827 0.222z"></path>
<path fill="#111518" style="fill: var(--color4, #111518)" d="M70.401 30.724c-0.407 0-0.776-0.087-1.106-0.262-0.327-0.179-0.586-0.424-0.776-0.736-0.186-0.316-0.279-0.671-0.279-1.066s0.093-0.749 0.279-1.061c0.19-0.316 0.449-0.561 0.776-0.736 0.331-0.179 0.701-0.268 1.112-0.268 0.346 0 0.658 0.061 0.935 0.183 0.281 0.122 0.517 0.297 0.707 0.525l-0.593 0.548c-0.27-0.312-0.605-0.468-1.004-0.468-0.247 0-0.468 0.055-0.662 0.165-0.194 0.106-0.346 0.257-0.456 0.451-0.106 0.194-0.16 0.414-0.16 0.662s0.053 0.468 0.16 0.662c0.11 0.194 0.262 0.346 0.456 0.456 0.194 0.106 0.414 0.16 0.662 0.16 0.399 0 0.734-0.158 1.004-0.473l0.593 0.548c-0.19 0.232-0.426 0.409-0.707 0.53s-0.595 0.183-0.941 0.183z"></path>
<path fill="#111518" style="fill: var(--color4, #111518)" d="M75.224 29.047h-0.639v1.608h-0.918v-3.992h0.918v1.614h0.662l1.049-1.614h0.975l-1.306 1.928 1.346 2.065h-1.049l-1.038-1.608z"></path>
<path fill="#111518" style="fill: var(--color4, #111518)" d="M78.771 26.663h0.918v2.601l1.905-2.601h0.867v3.992h-0.913v-2.595l-1.905 2.595h-0.873v-3.992z"></path>
<path fill="#111518" style="fill: var(--color4, #111518)" d="M84.481 26.663h0.918v2.601l1.905-2.601h0.867v3.992h-0.913v-2.595l-1.905 2.595h-0.873v-3.992zM86.324 26.406c-0.73 0-1.099-0.291-1.106-0.873h0.633c0.008 0.278 0.165 0.416 0.473 0.416 0.152 0 0.268-0.034 0.348-0.103 0.080-0.072 0.122-0.177 0.125-0.314h0.633c-0.004 0.285-0.097 0.502-0.279 0.65s-0.458 0.222-0.827 0.222z"></path>
<path fill="#111518" style="fill: var(--color4, #111518)" d="M73.153 14.987v2.836h-10.417v-12.975h10.176v2.836h-6.543v2.187h5.765v2.743h-5.765v2.373h6.784z"></path>
<path fill="#111518" style="fill: var(--color4, #111518)" d="M88.276 4.848v12.975h-3.021l-5.728-6.914v6.914h-3.596v-12.975h3.021l5.728 6.914v-6.914h3.596z"></path>
<path fill="#ff6b09" style="fill: var(--color3, #ff6b09)" d="M57.546 11.090c-0.189-0.424-0.451-0.842-0.833-1.325-0.964-1.212-1.258-3.915-1.261-3.94-0.013-0.13-0.105-0.237-0.225-0.275-0.124-0.039-0.258-0.003-0.346 0.094-1.15 1.286-0.667 3.273-0.405 4.067 0.072 0.217 0.15 0.473 0.206 0.732 0.425 2.097-0.395 3.046-0.588 3.237-0.186 0.052-0.314 0.026-0.431-0.101-0.405-0.444-0.539-1.899-0.35-3.795 0.039-0.386 0.029-0.732-0.026-1.056-0.4-2.33-1.865-3.825-2.238-4.349-1.026-1.517-1.131-4.041-1.134-4.064-0.003-0.12-0.072-0.227-0.18-0.279-0.105-0.052-0.232-0.045-0.33 0.023-1.712 1.163-1.565 3.966-1.327 5.532 0.056 0.363 0.163 0.732 0.35 1.199 0.663 1.669-0.131 3.824-0.137 3.843s-0.013 0.036-0.016 0.055c-0.101 0.531-0.271 0.849-0.461 0.849-0.020 0-0.039-0.003-0.062-0.010-0.232-0.049-0.353-0.295-0.356-0.509-0.013-2.764-2.787-3.694-2.817-3.704-0.124-0.039-0.261-0.003-0.346 0.097-0.088 0.1-0.105 0.24-0.046 0.356 0.033 0.068 0.137 0.366 0.065 1.419-0.062 0.946-0.235 1.883-0.513 2.78-0.66 2.152-0.555 4.19-0.549 4.287 0.507 5.519 8.444 6.486 13.155 3.377 0.516-0.34 0.938-0.729 1.248-1.157 1.738-2.398 0.716-5.655-0.046-7.385zM45.472 16.362c0.010 0.178-0.127 0.33-0.307 0.34h-0.020c-0.173 0-0.317-0.133-0.327-0.305-0.029-0.473-0.023-0.969 0.013-1.507 0.013-0.178 0.17-0.311 0.35-0.301 0.18 0.013 0.317 0.168 0.304 0.347-0.036 0.512-0.042 0.979-0.013 1.426zM45.632 13.491c-0.020 0.165-0.16 0.285-0.323 0.285-0.013 0-0.026 0-0.042-0.003-0.176-0.023-0.304-0.181-0.284-0.36l0.157-1.251c0.023-0.175 0.183-0.301 0.366-0.282 0.18 0.023 0.307 0.185 0.284 0.363l-0.157 1.248z"></path>
<path fill="#ff6b09" style="fill: var(--color3, #ff6b09)" d="M55.335 4.433c-0.178-0.027-0.3-0.193-0.273-0.369 0.020-0.132 0.138-0.806 0.459-1.145 0.123-0.131 0.33-0.138 0.462-0.015s0.138 0.327 0.015 0.458c-0.136 0.144-0.251 0.554-0.29 0.8-0.028 0.175-0.192 0.298-0.373 0.271z"></path>
<path fill="#ff6b09" style="fill: var(--color3, #ff6b09)" d="M43.423 6.048c-0.063-0.241-0.218-0.638-0.367-0.768-0.136-0.118-0.149-0.323-0.030-0.457s0.325-0.149 0.461-0.030c0.352 0.306 0.536 0.966 0.569 1.094 0.045 0.173-0.061 0.35-0.235 0.394-0.178 0.045-0.353-0.063-0.398-0.233z"></path>
</symbol>
<symbol id="icon-menu-btn-closed" viewBox="0 0 32 32">
<path d="M23.733 10.304l-1.504-1.504-5.963 5.963-5.963-5.963-1.504 1.504 5.963 5.963-5.963 5.963 1.504 1.504 5.963-5.963 5.963 5.963 1.504-1.504-5.963-5.963 5.963-5.963z"></path>
</symbol>
 <symbol id="icon-menu-btn" viewBox="0 0 32 32">
<path d="M6.4 11.733v-2.133h19.2v2.133h-19.2zM6.4 17.067h19.2v-2.133h-19.2v2.133zM6.4 22.4h19.2v-2.133h-19.2v2.133z"></path>
</symbol>
<symbol id="icon-mobile-learning" viewBox="0 0 26 32">
<path d="M23.211 0.668h-11.845c-0.771 0-1.398 0.627-1.398 1.398v4.903l-8.8 3.693c-0.1 0.042-0.167 0.136-0.175 0.244s0.046 0.211 0.138 0.266l1.122 0.672v7.157c-0.574 0.131-1.004 0.644-1.004 1.259v0.69c0 0.158 0.128 0.287 0.287 0.287h2.010c0.158 0 0.287-0.128 0.287-0.287v-0.69c0-0.614-0.431-1.127-1.005-1.258v-6.815l0.887 0.531c-0.027 0.205-0.003-0.357-0.013 3.332 0 1.213 3.106 1.862 6.266 1.899v5.586c0 0.289 0.088 0.557 0.239 0.78 0.251 0.372 0.677 0.617 1.158 0.617h11.845c0.77 0 1.397-0.627 1.397-1.397-0 0.038-0.002-1.183 0-21.469 0-0.761-0.629-1.399-1.396-1.399zM3.259 20.261v0.403h-1.436v-0.403c0-0.397 0.321-0.72 0.716-0.72 0.397 0 0.72 0.323 0.72 0.72zM23.211 24.357h-11.845c-0.284 0-0.535-0.144-0.684-0.362-0.089-0.131-0.141-0.29-0.141-0.46v-1.936h13.491v1.937c0 0.449-0.374 0.822-0.822 0.822zM24.033 21.026h-13.492v-3.074c1.543-0.018 6.27-0.357 6.27-1.901-0.002-2.317 0.004-3.257-0.007-3.337l2.573-1.541c0.093-0.056 0.146-0.159 0.138-0.266s-0.075-0.202-0.175-0.244l-8.799-3.693v-2.393h13.492v16.45zM10.255 14.148c-1.59 0-4.65 0.205-5.98 1.073 0.008-2.656-0.092-2.483 0.235-2.708 0.826-0.608 3.188-1.033 5.745-1.033 1.115 0 5.983 0.307 5.983 1.337v2.404c-1.342-0.876-4.387-1.074-5.983-1.074zM10.542 2.066c0-0.454 0.37-0.824 0.824-0.824h11.845c0.455 0 0.822 0.375 0.822 0.824v1.936h-13.491v-1.936zM10.255 7.471l8.342 3.502-2.067 1.237c-1.099-1.090-4.734-1.301-6.275-1.301-1.543 0-5.179 0.212-6.275 1.302l-2.068-1.237 8.343-3.502zM4.275 16.051c0-0.464 2.054-1.329 5.98-1.329 3.928 0 5.983 0.866 5.983 1.329s-2.055 1.33-5.983 1.33c-3.926 0-5.98-0.866-5.98-1.33z"></path>
<path d="M17.288 22.031c-0.523 0-0.948 0.425-0.948 0.948s0.425 0.948 0.948 0.948c0.523 0 0.948-0.425 0.948-0.948s-0.425-0.948-0.948-0.948zM17.288 23.354c-0.207 0-0.375-0.168-0.375-0.375s0.168-0.375 0.375-0.375c0.207 0 0.375 0.168 0.375 0.375s-0.168 0.375-0.375 0.375z"></path>
<path d="M16.195 2.336h2.186v0.573h-2.186v-0.573z"></path>
</symbol>
<symbol id="icon-call" viewBox="0 0 26 32">
<path d="M3.726 0.503c-0.412 0.020-0.817 0.195-1.114 0.521l-2.076 2.282c0.003-0.007-0.008-0.006-0.067 0.077-0.030 0.040-0.054 0.087-0.071 0.138l-0.001 0.004c-0.845 2.691-0.279 5.652 1.101 8.467s3.58 5.51 6.107 7.721c2.527 2.211 5.377 3.941 8.095 4.799s5.353 0.847 7.306-0.57c0.022-0.016 0.042-0.033 0.060-0.052l0-0c0.051-0.051 0.053-0.058 0.045-0.050l0.008-0.010 2.066-2.272c0.594-0.653 0.546-1.678-0.107-2.272l-4.901-4.457c-0.653-0.594-1.678-0.546-2.272 0.106l-2.217 2.438c-1.8-0.521-3.339-1.405-4.819-2.751s-2.506-2.795-3.195-4.538l2.217-2.438c0.594-0.653 0.546-1.678-0.106-2.272l-4.901-4.457c-0.326-0.297-0.746-0.434-1.158-0.414zM3.772 1.503c0.152-0.007 0.306 0.046 0.432 0.161l4.901 4.457c0.252 0.23 0.27 0.596 0.040 0.848l-2.45 2.693c-0.081 0.089-0.13 0.208-0.13 0.338 0 0.062 0.011 0.122 0.032 0.176l-0.001-0.003c0.744 2.029 1.943 3.694 3.594 5.196s3.42 2.539 5.511 3.088c0.038 0.010 0.082 0.017 0.128 0.017 0.148 0 0.28-0.063 0.372-0.164l0-0 2.451-2.694c0.23-0.252 0.595-0.269 0.848-0.039l4.901 4.457c0.252 0.23 0.269 0.595 0.039 0.848l-2.049 2.252c-1.603 1.15-3.861 1.215-6.389 0.417-2.538-0.801-5.294-2.461-7.733-4.596s-4.561-4.741-5.866-7.403c-1.291-2.635-1.76-5.299-1.049-7.647l2.002-2.2c0.115-0.126 0.264-0.194 0.416-0.201z"></path>
</symbol>
<symbol id="icon-open-book" viewBox="0 0 26 32">
<path d="M3.719 6.407h7.654v0.573h-7.654v-0.573z"></path>
<path d="M4.865 8.544h6.508v0.573h-6.508v-0.573z"></path>
<path d="M3.719 10.681h7.654v0.573h-7.654v-0.573z"></path>
<path d="M4.865 12.818h6.508v0.573h-6.508v-0.573z"></path>
<path d="M3.719 14.955h7.654v0.573h-7.654v-0.573z"></path>
<path d="M4.865 17.092h6.508v0.573h-6.508v-0.573z"></path>
<path d="M14.226 6.407h7.654v0.573h-7.654v-0.573z"></path>
<path d="M14.226 8.544h6.508v0.573h-6.508v-0.573z"></path>
<path d="M14.226 10.681h7.654v0.573h-7.654v-0.573z"></path>
<path d="M14.226 12.818h6.508v0.573h-6.508v-0.573z"></path>
<path d="M14.226 14.955h7.654v0.573h-7.654v-0.573z"></path>
<path d="M14.226 17.092h6.508v0.573h-6.508v-0.573z"></path>
<path d="M24.645 5.754h-1.051v-1.578c0-0.158-0.128-0.287-0.287-0.287h-8.566c-0.836 0-1.561 0.452-1.941 1.128-0.38-0.677-1.105-1.128-1.941-1.128h-8.566c-0.158 0-0.287 0.128-0.287 0.287v1.578h-1.051c-0.158 0-0.287 0.128-0.287 0.287v15.383c0 0.158 0.128 0.287 0.287 0.287 2.877 0 20.802 0 23.69 0 0.158 0 0.287-0.128 0.287-0.287v-15.383c0-0.158-0.128-0.287-0.287-0.287zM14.741 4.463h8.28c0 2.566 0 9.326 0 15.349h-8.891c-0.394 0-0.788 0.166-1.043 0.382v-14.080c0-0.915 0.732-1.651 1.654-1.651zM2.579 4.463h8.28c0.896 0 1.621 0.697 1.651 1.588 0 0.012 0.002 0.051 0.004 0.063v14.079c-0.254-0.215-0.644-0.381-1.039-0.381h-8.895c0-6.020 0-12.783 0-15.349zM1.242 6.328h0.764v13.771c0 0.158 0.128 0.287 0.287 0.287h9.182c0.437 0 0.859 0.287 0.994 0.753h-11.226v-14.81zM24.358 21.137h-11.226c0.136-0.468 0.554-0.753 0.998-0.753h9.178c0.158 0 0.287-0.128 0.287-0.287v-13.771h0.764v14.81z"></path>
</symbol>
<symbol id="icon-people" viewBox="0 0 26 32">
<path d="M1.918 10.148v2.182c0 0.117 0.054 0.228 0.146 0.3 1.491 1.174 3.362 1.82 5.268 1.82 0.571 0 1.142-0.060 1.7-0.172 1.19 0.526 2.457 0.795 3.768 0.795 1.315 0 2.582-0.269 3.768-0.795 2.382 0.481 4.919-0.036 6.968-1.648 0.092-0.073 0.146-0.183 0.146-0.3v-2.182c0-0.32-0.159-0.612-0.443-0.791l-2.98-1.676c0.652-0.827 1.138-2.005 1.222-3.015 0.247-1.739-1.17-3.58-3.21-3.58-0.858 0-1.673 0.353-2.271 0.945-0.021 0.021-0.044 0.038-0.064 0.059-0.018 0.019-0.033 0.042-0.051 0.061-0.012 0.013-0.022 0.028-0.034 0.041-0.583-1.063-1.704-1.72-3.024-1.72-0.128 0-0.254 0.009-0.379 0.021-0.008-0-0.014-0.004-0.022-0.004-0.071 0-0.221 0.019-0.301 0.042-0.012 0.003-0.020 0.012-0.032 0.016-0.986 0.199-1.821 0.797-2.322 1.661-0.602-0.702-1.487-1.123-2.449-1.123-3.011 0-4.347 3.554-1.97 6.612l-3.007 1.67c-0.267 0.169-0.426 0.461-0.426 0.781zM16.561 13.438c-0.065 0.032-0.129 0.065-0.194 0.095l-0 0c-0 0-0.001 0.001-0.001 0.001-1.119 0.514-2.319 0.775-3.566 0.775-1.243 0-2.443-0.261-3.567-0.776-0.547-0.249-1.076-0.565-1.576-0.941v-2.212c0-0.075 0.037-0.142 0.079-0.17l3.5-1.945c0.435 0.37 0.992 0.641 1.568 0.641 0.555 0 1.155-0.275 1.581-0.65l3.457 1.942c0.064 0.041 0.1 0.107 0.1 0.183v2.211c-0.44 0.331-0.904 0.612-1.382 0.846zM22.847 10.012c0.045 0.028 0.071 0.078 0.071 0.136v1.994c-1.517 1.138-3.342 1.655-5.191 1.525 0.284-0.178 0.594-0.398 0.834-0.586 0.092-0.072 0.146-0.183 0.146-0.301v-2.4c0-0.335-0.168-0.644-0.47-0.837l-1.837-1.032 0.447-0.247c0.542 0.442 1.007 0.573 1.424 0.573 0.51 0 1.048-0.25 1.447-0.585l3.128 1.76zM18.271 1.849c1.064 0 1.998 0.695 2.328 1.651-0.642-0.076-1.269-0.393-1.724-0.88-0.082-0.088-0.199-0.134-0.32-0.119-0.119 0.013-0.226 0.081-0.287 0.184-0.436 0.73-1.15 1.218-1.963 1.356 0-0.001-0-0.001-0-0.002 0.004-0.166-0.006-0.335-0.025-0.503-0.002-0.017-0.004-0.034-0.006-0.051-0.025-0.191-0.082-0.431-0.094-0.469 0.434-0.695 1.24-1.166 2.091-1.166zM16.221 4.82c0.965-0.106 1.838-0.591 2.438-1.358 0.591 0.485 1.341 0.778 2.082 0.814-0.006 1.381-1.134 3.796-2.47 3.796-1.030 0-1.91-1.474-2.239-2.495 0.084-0.263 0.144-0.516 0.189-0.758zM16.299 7.694l-0.683 0.378-0.689-0.387c0.256-0.318 0.49-0.688 0.691-1.089 0.193 0.406 0.424 0.778 0.681 1.098zM15.269 5.453c-0.368 1.099-1.314 2.689-2.465 2.689-1.342 0-2.486-2.207-2.704-3.618 0.058-0.014 1.872 0.097 3.12-1.542 0.634 0.53 1.488 0.881 2.32 0.916 0.010 0.498-0.111 1.084-0.271 1.555zM12.826 1.235c2.142 0 2.55 1.843 2.583 1.882-0.777-0.079-1.485-0.459-1.975-0.983-0.082-0.088-0.201-0.132-0.321-0.119s-0.226 0.082-0.288 0.185c-0.424 0.718-1.090 1.224-1.86 1.439-0.297 0.083-0.619 0.121-0.899 0.118 0.105-1.404 1.23-2.523 2.759-2.523zM9.984 6.588c0.198 0.397 0.434 0.775 0.703 1.108l-0.675 0.375-0.699-0.393c0.265-0.338 0.49-0.716 0.67-1.090zM7.322 1.849c0.867 0 1.661 0.44 2.103 1.166-0.022 0.077-0.082 0.384-0.090 0.422-0.532-0.127-1.020-0.41-1.403-0.819-0.082-0.088-0.199-0.131-0.321-0.119-0.119 0.013-0.226 0.082-0.287 0.185-0.511 0.862-1.449 1.398-2.448 1.398 0.122-1.254 1.17-2.235 2.446-2.235zM4.91 4.846c1.098-0.011 2.135-0.528 2.807-1.384 0.459 0.378 1.004 0.627 1.584 0.741 0.022 0.443 0.138 0.981 0.27 1.378-0.211 0.647-0.616 1.418-1.118 1.931-0.003 0.003-0.007 0.005-0.011 0.008-0.314 0.331-0.761 0.554-1.113 0.554-1.228 0-2.189-1.933-2.419-3.227zM2.682 10.148c0-0.058 0.026-0.107 0.052-0.125l3.171-1.76c0.19 0.158 0.234 0.177 0.272 0.204l-0 0c0.373 0.248 0.715 0.372 1.182 0.372 0.497 0 0.95-0.211 1.348-0.535 0.022-0.018 0.047-0.035 0.068-0.052l0.453 0.255-1.885 1.049c-0.282 0.182-0.45 0.49-0.45 0.825v2.4c0 0.117 0.054 0.228 0.146 0.3 0.244 0.192 0.56 0.415 0.834 0.587-1.876 0.128-3.701-0.407-5.191-1.526v-1.994z"></path>
<path d="M24.468 16.484c-0.47-0.296-1.049-0.326-1.547-0.085l-4.715 2.278c-0.016-0.883-0.737-1.596-1.623-1.596l-2.704 0.001c-1.333-1.159-3.037-1.869-4.586-1.906-1.528-0.036-2.899-0.046-3.539-0.049v-0.772h-5.372v8.874h5.372v-1.063c1.473 0.845 5.347 2.963 7.185 2.963 0.042 0 0.082-0.001 0.122-0.003 3.233-0.181 10.857-5.547 11.36-5.903 0.492-0.285 0.797-0.814 0.797-1.384 0-0.554-0.28-1.060-0.75-1.355zM4.99 22.465h-3.844v-7.346h3.844v7.346zM24.028 18.567c-0.012 0.006-0.023 0.013-0.034 0.021-0.079 0.056-7.922 5.603-10.976 5.774-0.030 0.002-0.061 0.002-0.093 0.002-1.612 0-5.543-2.121-7.171-3.083v-5.391c0.637 0.003 2.001 0.013 3.521 0.049 1.415 0.034 2.987 0.71 4.204 1.807l0.109 0.099 2.996-0.001c0.475 0 0.862 0.387 0.862 0.862s-0.387 0.862-0.862 0.862h-5.503v0.764h5.503c0.527 0 0.992-0.256 1.29-0.647l5.381-2.599c0.264-0.129 0.559-0.112 0.808 0.044s0.391 0.414 0.391 0.707c0 0.302-0.163 0.58-0.426 0.728z"></path>
<path d="M12.418 9.84h0.764v0.709h-0.764v-0.709z"></path>
<path d="M12.418 11.253h0.764v0.709h-0.764v-0.709z"></path>
<path d="M12.418 12.666h0.764v0.709h-0.764v-0.709z"></path>
</symbol>
<symbol id="icon-study-program" viewBox="0 0 26 32">
<path d="M23.727 4.675c0-0-0-0.001-0-0.002-0.005-0.012-0.011-0.023-0.018-0.033-0.001-0.001-0.001-0.002-0.002-0.002-0.007-0.011-0.015-0.021-0.025-0.031l-3.537-3.537c-0.009-0.009-0.019-0.017-0.030-0.024-0.002-0.002-0.005-0.003-0.007-0.004-0.009-0.005-0.017-0.010-0.027-0.014-0.003-0.001-0.005-0.003-0.008-0.003-0.023-0.009-0.048-0.014-0.073-0.015-0.002 0-0.003-0-0.004-0h-15.582c-0.115 0-0.209 0.094-0.209 0.209v21.573c0 0.014 0.001 0.027 0.004 0.041 0.001 0.006 0.003 0.011 0.005 0.017 0.002 0.007 0.004 0.015 0.007 0.022s0.006 0.013 0.010 0.019c0.003 0.005 0.006 0.012 0.009 0.017 0.007 0.011 0.015 0.020 0.024 0.029 0.001 0.001 0.001 0.002 0.002 0.002l1.593 1.593c0.082 0.082 0.214 0.082 0.296 0l1.446-1.445 1.445 1.445c0.041 0.041 0.094 0.061 0.148 0.061s0.107-0.020 0.148-0.061l1.445-1.445 1.446 1.445c0.082 0.082 0.214 0.082 0.296 0l1.445-1.445 1.445 1.445c0.082 0.082 0.214 0.082 0.295 0l1.446-1.445 1.445 1.445c0.041 0.041 0.094 0.061 0.148 0.061s0.107-0.020 0.148-0.061l1.445-1.445 1.446 1.445c0.081 0.082 0.214 0.082 0.295 0l1.593-1.593c0.003-0.003 0.005-0.007 0.008-0.010 0.006-0.007 0.012-0.014 0.017-0.021s0.008-0.015 0.012-0.022c0.003-0.005 0.005-0.009 0.007-0.014 0.004-0.009 0.006-0.019 0.009-0.029 0.001-0.003 0.003-0.006 0.003-0.010 0.003-0.014 0.004-0.028 0.004-0.043v-18.034c-0.001-0.027-0.006-0.055-0.017-0.080zM20.206 1.723l2.823 2.823h-2.823v-2.823zM23.325 22.703l-1.384 1.384-1.446-1.445c-0.081-0.081-0.214-0.081-0.295 0l-1.445 1.445-1.445-1.445c-0.082-0.081-0.214-0.081-0.296 0l-1.446 1.445-1.445-1.444c0-0-0-0-0-0.001-0.041-0.041-0.094-0.061-0.148-0.061s-0.107 0.020-0.148 0.061c-0 0-0 0-0 0l-1.445 1.445-1.446-1.445c-0.082-0.081-0.214-0.081-0.296 0l-1.445 1.445-1.445-1.445c-0.082-0.081-0.214-0.081-0.296 0l-1.446 1.445-1.384-1.384v-21.277h15.164v3.328c0 0.115 0.094 0.209 0.209 0.209h3.328l0 17.74z"></path>
<path d="M6.183 3.404h6.847c0.115 0 0.209-0.094 0.209-0.209s-0.094-0.209-0.209-0.209h-6.847c-0.116 0-0.209 0.094-0.209 0.209s0.093 0.209 0.209 0.209z"></path>
<path d="M6.183 4.697h10.98c0.115 0 0.209-0.094 0.209-0.209s-0.094-0.209-0.209-0.209h-10.98c-0.116 0-0.209 0.094-0.209 0.209s0.093 0.209 0.209 0.209z"></path>
<path d="M5.974 5.858v6.77c0 0.115 0.093 0.209 0.209 0.209h15.583c0.115 0 0.209-0.094 0.209-0.209v-6.77c0-0.115-0.093-0.209-0.209-0.209h-15.583c-0.116 0-0.209 0.094-0.209 0.209zM10.595 6.067h10.961v1.799h-10.961v-1.799zM10.595 8.285h10.961v1.799h-10.961v-1.799zM10.595 10.502h10.961v1.917h-10.961v-1.917zM6.392 6.067h3.785v1.799h-3.785v-1.799zM6.392 8.285h3.785v1.799h-3.785v-1.799zM6.392 10.502h3.785v1.917h-3.785v-1.917z"></path>
<path d="M21.766 13.778h-15.583c-0.116 0-0.209 0.094-0.209 0.209v6.77c0 0.115 0.093 0.209 0.209 0.209s0.209-0.093 0.209-0.209v-2.126h3.785v2.126c0 0.115 0.094 0.209 0.209 0.209s0.209-0.093 0.209-0.209v-2.126h10.961v2.126c0 0.115 0.094 0.209 0.209 0.209s0.209-0.093 0.209-0.209v-6.77c0-0.115-0.093-0.209-0.208-0.209zM10.177 18.213h-3.785v-1.798h3.785v1.798zM10.177 15.996h-3.785v-1.799h3.785v1.799zM21.556 18.213h-10.961v-1.798h10.961v1.798zM21.556 15.996h-10.961v-1.799h10.961v1.799z"></path>
<path d="M3.215 1.008c-0.115 0-0.209 0.094-0.209 0.209v21.573c0 0.115 0.094 0.209 0.209 0.209s0.209-0.094 0.209-0.209v-21.573c0-0.115-0.094-0.209-0.209-0.209z"></path>
<path d="M2.065 1.008c-0.115 0-0.209 0.094-0.209 0.209v21.573c0 0.115 0.094 0.209 0.209 0.209s0.209-0.094 0.209-0.209v-21.573c0-0.115-0.093-0.209-0.209-0.209z"></path>
</symbol>
<symbol id="icon-wave" viewBox="0 0 58 32">
<path fill="#fff" style="fill: var(--color2, #fff)" d="M8.139 27.61c-3.453 0.364-5.918 2.43-8.156 2.742v-30.473h58.603v16.746c-1.652-0.389-8.121 6.103-11.8 7.41-5.414 0.885-2.1-3.436-14.768 2.69s-19.806 0.455-23.879 0.885z"></path>
</symbol>
<symbol id="icon-vector" viewBox="0 0 40 32"><path d="M34.458 1.514c-1.485 0.664-2.907 1.475-4.266 2.379-2.731 1.797-5.227 3.936-7.568 6.218-2.291 2.256-4.444 4.63-6.458 7.12l-0.125 0.16c-0.515 0.637-2.822 3.472-2.822 3.472l-9.597-14.382-3.622 10.043 12.976 15.477c1.261-2.552 2.474-5.070 3.664-7.258 0.294-0.557 0.605-1.080 0.901-1.613 0 0 1.523-2.677 1.923-3.35 1.602-2.698 3.333-5.325 5.238-7.821 1.909-2.491 3.984-4.87 6.336-6.96 1.117-1.018 2.342-1.964 3.64-2.807l0.11-0.067c1.331-0.848 2.747-1.59 4.261-2.125-1.574 0.31-3.112 0.848-4.592 1.514z"></path>
</symbol>
</defs>
</svg>
