<svg aria-hidden="true" style="position: absolute; width: 0; height: 0; overflow: hidden;" version="1.1" xmlns="http://www.w3.org/2000/svg" xmlns:xlink="http://www.w3.org/1999/xlink">
<defs>
<symbol id="icon-audiobook" viewBox="0 0 26 32">
<path d="M2.048 21.84h8.219c0.415 0.848 1.272 1.422 2.262 1.422 0.003 0 0.006 0 0.009-0h0.519c0.003 0 0.006 0 0.010 0 0.991 0 1.847-0.574 2.256-1.407l0.007-0.015h8.223c0.847 0 1.536-0.689 1.536-1.536v-14.72c0-0.847-0.689-1.536-1.536-1.536h-0.829v-0.686c0-0.564-0.46-1.024-1.024-1.024h-17.802c-0.564 0-1.024 0.46-1.024 1.024v0.686h-0.824c-0.847 0-1.536 0.689-1.536 1.536v14.72c0 0.847 0.689 1.536 1.536 1.536zM21.698 18.681h-8.386v-11.897c1.938 0.253 3.441 1.912 3.441 3.918v0.462l-0.121-0.027c-0.033-0.008-0.071-0.012-0.11-0.012-0.244 0-0.448 0.17-0.499 0.399l-0.001 0.003-0.815 3.708c-0.008 0.033-0.012 0.071-0.012 0.109 0 0.244 0.17 0.448 0.399 0.499l0.003 0.001 1.761 0.388c0.091 0.019 0.184 0.029 0.276 0.029 0.62 0 1.147-0.424 1.282-1.032l0.472-2.145c0.019-0.084 0.030-0.181 0.030-0.28 0-0.624-0.435-1.146-1.019-1.28l-0.009-0.002-0.613-0.135v-0.688c0-2.572-1.961-4.695-4.465-4.953v-2.386h8.387l-0.001 15.319zM16.911 12.247l1.257 0.277c0.157 0.035 0.253 0.184 0.219 0.341l-0.471 2.145c-0.035 0.131-0.153 0.226-0.293 0.226-0.017 0-0.034-0.001-0.050-0.004l0.002 0-1.259-0.277 0.595-2.708zM3.896 3.362h8.392v2.386c-2.507 0.256-4.47 2.379-4.47 4.953v0.687l-0.614 0.136c-0.347 0.078-0.636 0.285-0.818 0.568l-0.003 0.005c-0.129 0.198-0.206 0.441-0.206 0.702 0 0.101 0.012 0.2 0.033 0.294l-0.002-0.009 0.471 2.142c0.134 0.596 0.658 1.035 1.285 1.035 0.098 0 0.194-0.011 0.286-0.031l-0.009 0.002 1.754-0.387c0.231-0.052 0.401-0.256 0.401-0.5 0-0.039-0.004-0.076-0.012-0.113l0.001 0.003-0.815-3.709c-0.052-0.231-0.256-0.402-0.499-0.402-0.039 0-0.078 0.004-0.115 0.013l0.003-0.001-0.117 0.026v-0.461c0-2.008 1.505-3.667 3.446-3.919v11.899h-8.392v-15.319zM8.679 12.247l0.596 2.708-1.252 0.276c-0.018 0.004-0.039 0.006-0.060 0.006-0.138 0-0.253-0.096-0.283-0.225l-0-0.002-0.471-2.148c-0.005-0.019-0.007-0.041-0.007-0.064 0-0.056 0.016-0.108 0.044-0.151l-0.001 0.001c0.041-0.063 0.104-0.108 0.178-0.125l0.002-0 1.254-0.276zM1.536 5.584c0-0.282 0.229-0.512 0.512-0.512h0.824v13.609c0 0.565 0.46 1.024 1.024 1.024h17.802c0.564 0 1.024-0.459 1.024-1.024v-13.608h0.829c0.283 0 0.512 0.23 0.512 0.512v14.72c0 0.283-0.229 0.512-0.512 0.512h-8.571c-0.229 0-0.423 0.151-0.489 0.358l-0.001 0.004c-0.192 0.618-0.758 1.060-1.428 1.060-0.002 0-0.004 0-0.007 0h-0.519c-0.001 0-0.001 0-0.002 0-0.673 0-1.243-0.444-1.431-1.055l-0.003-0.011c-0.068-0.208-0.261-0.356-0.488-0.356-0 0-0 0-0 0h-8.566c-0.283 0-0.512-0.229-0.512-0.512v-14.72z"></path>
</symbol>
<symbol id="icon-campfire" viewBox="0 0 26 32">
<path d="M20.635 13.26c-0.218-0.493-0.52-0.979-0.96-1.54-1.111-1.408-1.449-4.548-1.453-4.578-0.015-0.151-0.12-0.275-0.26-0.32-0.143-0.045-0.297-0.004-0.399 0.109-1.325 1.495-0.768 3.802-0.467 4.725 0.083 0.252 0.173 0.55 0.237 0.851 0.489 2.436-0.456 3.539-0.678 3.761-0.215 0.060-0.361 0.030-0.497-0.117-0.467-0.516-0.621-2.206-0.403-4.408 0.045-0.448 0.034-0.851-0.030-1.227-0.46-2.707-2.149-4.443-2.579-5.052-1.182-1.762-1.303-4.695-1.306-4.721-0.004-0.139-0.083-0.264-0.207-0.324-0.12-0.060-0.267-0.053-0.38 0.026-1.973 1.352-1.803 4.608-1.528 6.426 0.064 0.422 0.188 0.851 0.403 1.393 0.764 1.939-0.151 4.442-0.158 4.465s-0.015 0.041-0.019 0.064c-0.117 0.617-0.312 0.986-0.531 0.986-0.023 0-0.045-0.004-0.072-0.011-0.267-0.056-0.407-0.343-0.41-0.591-0.015-3.211-3.211-4.292-3.245-4.303-0.143-0.045-0.301-0.004-0.399 0.113-0.102 0.117-0.12 0.279-0.053 0.414 0.038 0.079 0.158 0.425 0.075 1.649-0.072 1.099-0.271 2.187-0.591 3.23-0.76 2.5-0.64 4.868-0.632 4.981 0.585 6.412 9.729 7.535 15.157 3.923 0.595-0.395 1.080-0.847 1.438-1.344 2.003-2.786 0.825-6.569-0.053-8.58zM6.725 19.386c0.011 0.207-0.147 0.384-0.354 0.395h-0.023c-0.2 0-0.365-0.154-0.376-0.354-0.034-0.55-0.026-1.126 0.015-1.751 0.015-0.207 0.196-0.361 0.403-0.35 0.207 0.015 0.365 0.196 0.35 0.403-0.041 0.595-0.049 1.137-0.015 1.657zM6.909 16.050c-0.023 0.192-0.184 0.331-0.373 0.331-0.015 0-0.030 0-0.049-0.004-0.203-0.026-0.35-0.211-0.328-0.418l0.181-1.453c0.026-0.203 0.211-0.35 0.422-0.328 0.207 0.026 0.354 0.215 0.328 0.422l-0.181 1.449z"></path>
<path d="M18.088 5.527c-0.205-0.032-0.346-0.224-0.314-0.429 0.024-0.153 0.16-0.936 0.529-1.33 0.142-0.152 0.38-0.16 0.532-0.017s0.159 0.38 0.017 0.532c-0.156 0.167-0.289 0.644-0.334 0.929-0.032 0.203-0.221 0.346-0.43 0.314z"></path>
<path d="M4.364 7.402c-0.072-0.28-0.251-0.742-0.423-0.892-0.156-0.137-0.172-0.375-0.035-0.531s0.374-0.173 0.531-0.035c0.406 0.356 0.618 1.122 0.656 1.272 0.051 0.201-0.070 0.406-0.271 0.458-0.206 0.052-0.407-0.073-0.458-0.271z"></path>
</symbol>
<symbol id="icon-campfirebig" viewBox="0 0 28 32">
<path d="M28.799 21.831c-0.373-0.836-0.887-1.659-1.639-2.609-1.896-2.386-2.474-7.706-2.481-7.757-0.026-0.255-0.206-0.466-0.443-0.542-0.059-0.019-0.127-0.031-0.197-0.031-0.192 0-0.364 0.083-0.484 0.215l-0 0.001c-2.262 2.533-1.311 6.443-0.797 8.006 0.141 0.427 0.296 0.931 0.405 1.442 0.835 4.127-0.778 5.996-1.157 6.373-0.366 0.102-0.617 0.051-0.848-0.198-0.797-0.874-1.060-3.738-0.688-7.47 0.077-0.759 0.058-1.442-0.051-2.080-0.786-4.587-3.668-7.529-4.402-8.561-2.018-2.985-2.224-7.955-2.23-7.999-0.006-0.236-0.141-0.447-0.353-0.549-0.206-0.102-0.456-0.089-0.649 0.045-3.368 2.29-3.078 7.808-2.609 10.889 0.109 0.714 0.321 1.442 0.688 2.36 1.305 3.285-0.257 7.527-0.27 7.566s-0.026 0.070-0.032 0.108c-0.199 1.046-0.533 1.671-0.906 1.671-0.039 0-0.077-0.006-0.122-0.019-0.456-0.096-0.694-0.581-0.7-1.002-0.026-5.441-5.482-7.272-5.54-7.291-0.244-0.077-0.514-0.006-0.681 0.191-0.174 0.198-0.206 0.472-0.090 0.702 0.064 0.134 0.27 0.721 0.129 2.794-0.122 1.863-0.463 3.706-1.009 5.473-1.298 4.236-1.093 8.248-1.080 8.439 0.998 10.864 16.609 12.768 25.873 6.647 1.015-0.67 1.844-1.435 2.455-2.277 3.419-4.721 1.407-11.131-0.090-14.538zM5.053 32.21c0.019 0.351-0.251 0.651-0.604 0.67h-0.039c-0.341 0-0.623-0.262-0.643-0.6-0.058-0.931-0.045-1.907 0.026-2.966 0.026-0.351 0.334-0.612 0.688-0.593 0.353 0.026 0.623 0.332 0.598 0.683-0.071 1.008-0.084 1.927-0.026 2.807zM5.368 26.558c-0.039 0.325-0.315 0.561-0.636 0.561-0.026 0-0.051 0-0.084-0.006-0.347-0.045-0.598-0.357-0.559-0.708l0.308-2.462c0.045-0.344 0.36-0.593 0.72-0.555 0.354 0.045 0.604 0.364 0.559 0.714l-0.308 2.456zM24.451 8.727c-0.351-0.054-0.591-0.379-0.537-0.727 0.040-0.259 0.272-1.586 0.902-2.253 0.243-0.257 0.649-0.271 0.908-0.029 0.125 0.116 0.203 0.282 0.203 0.465 0 0.169-0.066 0.323-0.174 0.437l0-0c-0.267 0.283-0.494 1.091-0.57 1.575-0.054 0.344-0.378 0.586-0.733 0.533zM1.023 11.905c-0.123-0.474-0.429-1.257-0.722-1.512-0.267-0.232-0.294-0.635-0.060-0.9s0.639-0.292 0.907-0.059c0.693 0.603 1.054 1.901 1.12 2.154 0.088 0.341-0.119 0.688-0.463 0.776-0.351 0.088-0.695-0.123-0.783-0.459z"></path>
</symbol>
<symbol id="icon-check" viewBox="0 0 26 32">
<path d="M20.463 5.366c-0.762 0.341-1.492 0.757-2.189 1.221-1.402 0.922-2.683 2.020-3.885 3.191-1.201 1.174-2.32 2.43-3.377 3.736-0.264 0.327-1.449 1.781-1.449 1.781l-4.925-7.38-1.859 5.153 6.66 7.943c0.647-1.309 1.269-2.602 1.88-3.725 0.152-0.286 0.311-0.554 0.462-0.827 0 0 0.782-1.374 0.987-1.72 0.822-1.384 1.71-2.733 2.689-4.014 0.979-1.279 2.044-2.499 3.251-3.572 0.601-0.54 1.24-1.039 1.925-1.474 0.684-0.435 1.41-0.817 2.187-1.091-0.808 0.159-1.597 0.435-2.357 0.777z"></path>
</symbol>
<symbol id="icon-female" viewBox="0 0 34 40" fill="none" xmlns="http://www.w3.org/2000/svg">>
<path d="M-.1284 39.1984h33.4809c.1658-3.8181-.1077-10.153-2.4552-13.1682l-.0849-.1083-5.1298-2.5756c.1114-.3757.1662-.7199.1882-.9728.0254-.3037-.0165-.5889-.1249-.8473-.8463-2.0251-2.6371-3.0906-3.6221-3.5447.3002-.6048.4937-1.2541.5872-1.9175a1.6457 1.6457 0 001.1531-1.1885l.5988-2.4325a1.646 1.646 0 00-.1886-1.2527c-.0981-.1631-.225-.3005-.3674-.418 1.6882-3.8346-1.1393-7.4504-1.2933-7.6407C19.5514-.1792 15.683.44 15.4785.4766c-5.5827 1.169-7.737 5.4474-6.5208 10.4653a1.6473 1.6473 0 00-.378 1.5005l.6017 2.4352c.1459.5852.5908 1.0255 1.1445 1.1845a6.2652 6.2652 0 001.4403 3.1992v1.9284c-8.0111 4.1026-2.935 1.4852-9.3551 4.7331-.0127.0606-3.0125 3.2487-2.5666 12.6983l.0271.5773zm32.3175-1.2121h-5.5103v-2.3147l3.6445-8.3431c1.8257 3.0303 1.8935 8.8163 1.8658 10.6578zm-7.5205-15.7158c-.2126 2.4427-1.5522 1.7043-2.3792 3.5863-.6504-.7152-.846-1.5728-.6712-2.4908.3158-1.6856-.713-2.1863-.4587-3.9574l.0385-.0406v-.0056c.0218-.0244.2247-.2661.2835-.3424 2.1801.9504 3.2296 2.7179 3.1871 3.2505zm-11.6954-1.92c1.0121.702 2.2338 1.1168 3.5478 1.1168 1.2375 0 2.4129-.3601 3.4206-1.0232.1397 1.3924.6839 1.6712.4908 2.6958-.0362.1902-.0558.3776-.0674.562l-3.7527 4.2294-4.7971-5.4083 1.158-.6047v-1.5678zm-1.5087-5.1761v-2.3449-4.1202c.584-1.0802 1.3802-1.8635 2.3697-2.3331 2.6501 1.4994 5.7005 3.7372 7.7463 5.9893-.002 2.8681.0081 2.8759-.011 3.1115l-.0013.015c-.1596 2.6044-2.3011 4.7632-5.0472 4.7632-2.6697 0-4.8862-2.0961-5.0465-4.789a3.3976 3.3976 0 01-.01-.2918zm-.7473 7.9335l5.8951 6.6457 3.9579-4.4606c.0904.2604.2173.5065.3624.7441l-4.3202 5.4027-6.4424-8.0572.5472-.2747zm12.0702-8.9089v-1.8723l.45-.5159c.0248.948.1272-.1709-.45 2.3882zM15.7018 1.6677c.2395.0149 3.4564-.4894 5.9989 2.2555.1001.1256 2.1697 2.7922 1.3383 5.7093-.2846-1.298-.7807-2.9614-1.5646-3.7553l-.8569.8535c.774.784 1.2825 3.1714 1.4761 4.4091-3.5505-3.7153-8.1306-6.0667-8.1934-6.1065-.2297.1428-2.1679.5113-3.5755 3.2472l-.0672.1308v2.0093l-.1774.0019c-.8944-4.318.8184-7.748 5.6217-8.7548zM9.9529 11.6694l.3046 1.2341v1.297l-.5062-2.049c-.0743-.3054.152-.4212.2016-.4821zm-.8874 12.2677l7.5468 9.4387 5.1061-6.3863c.5555.4971.8225.5676 2.0002 1.1732l-.3972-1.3474c-.1008-.3421.2982-.8907.5392-1.1428.538-.2919.9864-.7081 1.3219-1.2219l4.166 2.0919-3.8766 8.8752v2.5686H7.7522v-2.5689l-3.8784-8.874 5.1917-2.6063zm-6.1653 3.394l3.645 8.3408v2.3144H1.035c-.0277-1.8409.0406-7.624 1.8652-10.6552z" fill="#FF6B09"/>
</symbol>
<symbol id="icon-instagram" viewBox="0 0 32 32">
<path fill="#000" style="fill: var(--color1, #000)" d="M31.452 5.724c-0.291-2.729-2.447-4.885-5.176-5.176-6.844-0.73-13.709-0.73-20.552 0-2.729 0.291-4.885 2.447-5.176 5.176-0.73 6.844-0.73 13.708 0 20.552 0.291 2.729 2.447 4.885 5.176 5.176 6.844 0.73 13.709 0.73 20.553 0 2.729-0.291 4.885-2.447 5.176-5.176 0.73-6.844 0.73-13.708 0-20.552z"></path>
<path fill="#000" style="fill: var(--color1, #000)" d="M29.712 6.881c-0.258-2.422-2.171-4.334-4.593-4.593-6.073-0.648-12.165-0.648-18.238 0-2.422 0.259-4.334 2.171-4.593 4.593-0.648 6.073-0.648 12.165 0 18.238 0.259 2.422 2.171 4.335 4.593 4.593 6.073 0.648 12.165 0.648 18.238 0 2.422-0.258 4.335-2.171 4.593-4.593 0.648-6.073 0.648-12.164 0-18.238z"></path>
<path fill="#000" style="fill: var(--color1, #000)" d="M0.479 25.613c0.022 0.221 0.045 0.442 0.068 0.664 0.291 2.729 2.447 4.885 5.176 5.176 6.844 0.73 13.709 0.73 20.552 0 2.729-0.291 4.885-2.447 5.176-5.176 0.024-0.221 0.046-0.442 0.069-0.664z"></path>
<path fill="#000" style="fill: var(--color1, #000)" d="M31.452 26.276c0.393-3.678 0.574-7.361 0.544-11.044l-7.314-7.314c-0.914-1.043-2.249-1.694-3.817-1.751-3.225-0.116-6.461-0.11-9.687 0-2.679 0.092-4.553 1.893-5.033 4.54-0.085 0.467-0.136 0.941-0.202 1.411v7.759c0.037 0.251 0.091 0.502 0.108 0.755 0.107 1.61 0.769 2.989 1.828 3.922l7.443 7.443c3.653 0.026 7.306-0.156 10.954-0.545 2.729-0.291 4.885-2.447 5.176-5.176z"></path>
<path fill="#000" style="fill: var(--color1, #000)" d="M31.452 26.276c-0.291 2.729-2.447 4.885-5.176 5.176-3.647 0.389-7.301 0.571-10.953 0.545l-7.432-7.432c0.862 0.754 1.985 1.213 3.288 1.262 3.225 0.121 6.461 0.118 9.687 0.002 2.917-0.105 5.028-2.264 5.119-5.181 0.097-3.097 0.097-6.202 0-9.3-0.041-1.346-0.514-2.53-1.297-3.426l7.31 7.31c0.029 3.682-0.152 7.366-0.545 11.044z"></path>
<path fill="#000" style="fill: var(--color1, #000)" d="M19.776 12.535c-0.937-1.020-2.282-1.66-3.776-1.66-2.831 0-5.125 2.295-5.125 5.125 0 1.494 0.64 2.839 1.66 3.776l11.859 11.859c0.628-0.055 1.255-0.115 1.883-0.182 2.729-0.291 4.885-2.447 5.176-5.176 0.067-0.627 0.128-1.255 0.182-1.883z"></path>
<path fill="#000" style="fill: var(--color1, #000)" d="M31.938 19.447l-9.544-9.544c-0.223-0.292-0.573-0.482-0.969-0.482-0.673 0-1.219 0.546-1.219 1.219 0 0.396 0.19 0.747 0.482 0.969l11.080 11.080c0.075-1.081 0.132-2.162 0.171-3.243z"></path>
<path fill="#000" style="fill: var(--color1, #000)" d="M5.943 12.119c0.067-0.471 0.117-0.944 0.202-1.411 0.48-2.647 2.354-4.447 5.033-4.54 3.226-0.111 6.461-0.117 9.687-0 2.916 0.105 5.028 2.264 5.119 5.181 0.097 3.097 0.097 6.202 0 9.3-0.091 2.917-2.202 5.076-5.119 5.181-3.225 0.116-6.462 0.119-9.687-0.002-2.916-0.11-4.933-2.274-5.128-5.195-0.017-0.253-0.071-0.503-0.108-0.755 0-2.586 0-5.173 0-7.759zM16.003 24.101c1.476 0 2.954 0.044 4.428-0.010 2.311-0.086 3.733-1.465 3.787-3.774 0.067-2.877 0.067-5.758 0-8.636-0.054-2.309-1.477-3.72-3.787-3.769-2.932-0.062-5.868-0.062-8.8 0-2.293 0.048-3.719 1.431-3.781 3.714-0.079 2.914-0.079 5.832 0 8.746 0.062 2.283 1.488 3.634 3.781 3.719 1.456 0.054 2.915 0.010 4.372 0.010z"></path>
<path fill="#fff" style="fill: var(--color2, #fff)" d="M5.943 12.119c0.067-0.471 0.117-0.944 0.202-1.411 0.48-2.647 2.354-4.447 5.033-4.54 3.226-0.111 6.461-0.117 9.687-0 2.916 0.105 5.028 2.264 5.119 5.181 0.097 3.097 0.097 6.202 0 9.3-0.091 2.917-2.202 5.076-5.119 5.181-3.225 0.116-6.462 0.119-9.687-0.002-2.916-0.11-4.933-2.274-5.128-5.195-0.017-0.253-0.071-0.503-0.108-0.755 0-2.586 0-5.173 0-7.759zM16.003 24.101c1.476 0 2.954 0.044 4.428-0.010 2.311-0.086 3.733-1.465 3.787-3.774 0.067-2.877 0.067-5.758 0-8.636-0.054-2.309-1.477-3.72-3.787-3.769-2.932-0.062-5.868-0.062-8.8 0-2.293 0.048-3.719 1.431-3.781 3.714-0.079 2.914-0.079 5.832 0 8.746 0.062 2.283 1.488 3.634 3.781 3.719 1.456 0.054 2.915 0.010 4.372 0.010z"></path>
<path fill="#fff" style="fill: var(--color2, #fff)" d="M16 10.875c-2.831 0-5.125 2.295-5.125 5.125s2.295 5.125 5.125 5.125c2.831 0 5.125-2.295 5.125-5.125s-2.295-5.125-5.125-5.125zM16 19.361c-1.856 0-3.361-1.505-3.361-3.361s1.505-3.361 3.361-3.361 3.361 1.505 3.361 3.361-1.505 3.361-3.361 3.361z"></path>
<path fill="#fff" style="fill: var(--color2, #fff)" d="M22.644 10.641c0 0.673-0.546 1.219-1.219 1.219s-1.219-0.546-1.219-1.219c0-0.674 0.546-1.219 1.219-1.219s1.219 0.546 1.219 1.219z"></path>
</symbol>
<symbol id="icon-insurance"  viewBox="0 0 35 41" fill="none" xmlns="http://www.w3.org/2000/svg">>
 <path d="M.6772 17.6776c0 .4461-.6772.4461-.6772 0C0 8.1926 7.6926.5 17.1776.5c9.4891 0 17.1776 7.6926 17.1776 17.1776 0 .4461-.6731.4461-.6731 0 0-6.4112-10.5353-6.4152-10.5353 0 0 .4461-.6934.4461-.6934 0 0-6.395-10.5515-6.395-10.5515 0 0 .4461-.6935.4461-.6935 0 0-6.3828-10.5312-6.4274-10.5312 0zm10.5921-2.4898c.1824-3.6902.7623-6.9992 1.6058-9.5256.6732-2.0073 1.5247-3.532 2.4899-4.3877C8.1225 2.0653 2.2587 7.556.949 14.6768c2.4938-3.5969 8.2521-3.309 10.3203.511zm11.1313-.1663c-.1865-3.5483-.7502-6.7234-1.5612-9.1444-2.0924-6.2652-5.2311-6.2652-7.3236 0-.811 2.421-1.3706 5.5961-1.5612 9.1444 2.2506-3.824 8.1954-3.824 10.446 0zm11.0057-.3447C32.1006 7.556 26.2368 2.0653 18.9903 1.2745c.9691.8557 1.8167 2.3804 2.4898 4.3877.8435 2.5264 1.4234 5.8354 1.6059 9.5256 2.0803-3.8403 7.8548-4.0674 10.3203-.511zM14.9229 25.5374v-3.4881c-.6286.4177-1.1233 1.0626-1.1233 1.8495 0 .7666.5029 1.2736 1.1233 1.6386zm.6772 1.083c-1.2044-.5516-2.4736-1.1965-2.4736-2.7216 0-1.5737 1.1962-2.3606 2.4736-2.9487v5.6703zM19.4324 30.8v3.528c.6367-.4217 1.1355-1.0705 1.1355-1.8572 0-.7746-.511-1.2977-1.1355-1.6708zm-.6731-1.0867c1.2084.5596 2.4858 1.2246 2.4858 2.7575 0 1.5774-1.2044 2.3641-2.4858 2.9481v-5.7056z" fill="#FF6B09"/><path d="M19.4323 18.0791c2.7737.6407 5.6245 2.717 5.6245 5.8193 0 2.6562-4.4891 2.5588-4.4891 0 0-.7908-.4987-1.4396-1.1354-1.8573v4.9636c2.5669.8394 5.6326 2.3439 5.6326 5.4665 0 3.1063-2.8508 5.1785-5.6326 5.8152-.0122 2.9563-4.5012 2.9522-4.5093-.004-1.5815-.365-2.9562-1.1031-3.9497-2.0804-1.0422-1.03-1.6586-2.3236-1.6586-3.7308 0-2.6157 4.485-2.6157 4.485 0 0 .7826.4947 1.4274 1.1233 1.8451v-4.9595c-2.5467-.8233-5.6286-2.3724-5.6286-5.4665 0-3.1063 2.8508-5.1786 5.6286-5.8153.0121-2.9562 4.5012-2.9522 4.5093.0041zm-3.8321.0081v.5394c-2.6399.5231-5.6326 2.2141-5.6326 5.2637 0 2.9319 3.2847 4.2458 5.6326 4.9717v6.5533c-1.2693-.5799-2.4737-1.3626-2.4737-2.9441 0-1.7276-3.1386-1.7276-3.1386 0 0 1.2206.5434 2.348 1.4598 3.2482 1.1638 1.1517 2.575 1.6992 4.1525 2.0114v.5434c0 2.0804 3.159 2.0804 3.159 0v-.5393c2.648-.5272 5.6285-2.2182 5.6285-5.2637 0-2.9603-3.2766-4.2337-5.6285-4.9758v-6.5492c1.2733.5799 2.4858 1.3625 2.4858 2.9522 0 1.6829 3.1346 1.7519 3.1346 0 0-3.0455-2.9765-4.7406-5.6204-5.2678v-.5434c0-2.0803-3.159-2.0803-3.159 0z" fill="#FF6B09"/>
</symbol>
<symbol id="icon-logo-main-white" viewBox="0 0 91 32">
<path fill="#fff" style="fill: var(--color2, #fff)" d="M13.608 4.836v12.942h-3.661v-5.047h-4.992v5.047h-3.661v-12.942h3.661v4.863h4.992v-4.863h3.661zM27.006 12.786c0 0.025-0.018 0.314-0.055 0.869h-7.285c0.148 0.518 0.431 0.918 0.851 1.202 0.431 0.271 0.968 0.407 1.609 0.407 0.481 0 0.894-0.068 1.239-0.203 0.357-0.136 0.715-0.357 1.072-0.666l1.849 1.923c-0.974 1.085-2.397 1.627-4.271 1.627-1.171 0-2.2-0.222-3.088-0.666s-1.578-1.060-2.071-1.849c-0.481-0.789-0.721-1.683-0.721-2.681 0-0.986 0.234-1.867 0.703-2.644 0.481-0.789 1.14-1.405 1.978-1.849s1.781-0.666 2.829-0.666c0.998 0 1.904 0.21 2.718 0.629 0.814 0.407 1.454 1.005 1.923 1.793 0.481 0.777 0.721 1.701 0.721 2.773zM21.663 10.086c-0.542 0-0.998 0.154-1.368 0.462-0.357 0.308-0.586 0.727-0.684 1.257h4.105c-0.099-0.53-0.333-0.949-0.703-1.257-0.357-0.308-0.807-0.462-1.35-0.462zM29.365 4.059h3.513v13.719h-3.513v-13.719zM35.901 4.059h3.513v13.719h-3.513v-13.719z"></path>
<path fill="#ff6b09" style="fill: var(--color3, #ff6b09)" d="M4.614 29.724h-1.849l-0.353 0.853h-0.944l1.775-3.982h0.91l1.781 3.982h-0.967l-0.353-0.853zM4.324 29.025l-0.631-1.525-0.631 1.525h1.263zM11.626 29.827v1.576h-0.853v-0.825h-2.81v0.825h-0.853l0.006-1.576h0.159c0.239-0.008 0.408-0.182 0.506-0.523s0.159-0.829 0.182-1.462l0.045-1.246h3.061v3.231h0.557zM8.776 27.927c-0.019 0.474-0.059 0.872-0.119 1.195-0.061 0.319-0.154 0.554-0.279 0.705h1.781v-2.48h-1.365l-0.017 0.58zM15.154 30.646c-0.406 0-0.774-0.087-1.104-0.262-0.326-0.178-0.584-0.423-0.774-0.734-0.186-0.315-0.279-0.669-0.279-1.064s0.093-0.747 0.279-1.058c0.19-0.315 0.448-0.559 0.774-0.734 0.33-0.178 0.7-0.267 1.109-0.267 0.345 0 0.656 0.061 0.933 0.182 0.281 0.121 0.516 0.296 0.705 0.523l-0.592 0.546c-0.269-0.311-0.603-0.466-1.001-0.466-0.246 0-0.466 0.055-0.66 0.165-0.193 0.106-0.345 0.256-0.455 0.449-0.106 0.193-0.159 0.413-0.159 0.66s0.053 0.466 0.159 0.66c0.11 0.193 0.262 0.345 0.455 0.455 0.193 0.106 0.413 0.159 0.66 0.159 0.398 0 0.732-0.157 1.001-0.472l0.592 0.546c-0.19 0.231-0.425 0.408-0.705 0.529s-0.594 0.182-0.939 0.182zM19.964 28.974h-0.637v1.604h-0.916v-3.982h0.916v1.61h0.66l1.047-1.61h0.973l-1.303 1.923 1.343 2.059h-1.047l-1.035-1.604zM23.502 26.596h0.916v2.594l1.9-2.594h0.865v3.982h-0.91v-2.588l-1.9 2.588h-0.87v-3.982zM29.198 26.596h0.916v2.594l1.9-2.594h0.865v3.982h-0.91v-2.588l-1.9 2.588h-0.87v-3.982zM31.036 26.34c-0.728 0-1.096-0.29-1.104-0.87h0.631c0.008 0.277 0.165 0.415 0.472 0.415 0.152 0 0.267-0.034 0.347-0.102 0.080-0.072 0.121-0.176 0.125-0.313h0.631c-0.004 0.284-0.097 0.501-0.279 0.649s-0.457 0.222-0.825 0.222z"></path>
<path fill="#fff" style="fill: var(--color2, #fff)" d="M40.226 29.724h-1.849l-0.353 0.853h-0.944l1.775-3.982h0.91l1.781 3.982h-0.967l-0.353-0.853zM39.936 29.025l-0.631-1.525-0.631 1.525h1.263zM46.75 26.596v3.982h-0.922v-1.633h-1.809v1.633h-0.922v-3.982h0.922v1.57h1.809v-1.57h0.922zM51.577 27.346h-1.894l0.006 3.231h-0.916v-3.982h2.81l-0.006 0.751zM56.224 26.596v3.982h-0.91v-3.231h-1.365l-0.028 0.831c-0.019 0.565-0.065 1.024-0.137 1.377-0.072 0.349-0.193 0.618-0.364 0.808-0.167 0.186-0.402 0.279-0.705 0.279-0.125 0-0.277-0.021-0.455-0.063l0.057-0.779c0.049 0.015 0.104 0.023 0.165 0.023 0.22 0 0.374-0.129 0.461-0.387 0.087-0.262 0.142-0.669 0.165-1.223l0.057-1.616h3.061zM58.242 26.596h0.916v2.594l1.9-2.594h0.865v3.982h-0.91v-2.588l-1.9 2.588h-0.87v-3.982zM63.938 26.596h0.916v2.594l1.9-2.594h0.865v3.982h-0.91v-2.588l-1.9 2.588h-0.87v-3.982zM65.776 26.34c-0.728 0-1.096-0.29-1.104-0.87h0.631c0.008 0.277 0.165 0.415 0.472 0.415 0.152 0 0.267-0.034 0.347-0.102 0.080-0.072 0.121-0.176 0.125-0.313h0.631c-0.004 0.284-0.097 0.501-0.279 0.649s-0.457 0.222-0.825 0.222zM71.518 30.646c-0.406 0-0.774-0.087-1.104-0.262-0.326-0.178-0.584-0.423-0.774-0.734-0.186-0.315-0.279-0.669-0.279-1.064s0.093-0.747 0.279-1.058c0.19-0.315 0.448-0.559 0.774-0.734 0.33-0.178 0.7-0.267 1.109-0.267 0.345 0 0.656 0.061 0.933 0.182 0.28 0.121 0.516 0.296 0.705 0.523l-0.592 0.546c-0.269-0.311-0.603-0.466-1.001-0.466-0.247 0-0.467 0.055-0.66 0.165-0.193 0.106-0.345 0.256-0.455 0.449-0.106 0.193-0.159 0.413-0.159 0.66s0.053 0.466 0.159 0.66c0.11 0.193 0.262 0.345 0.455 0.455 0.193 0.106 0.413 0.159 0.66 0.159 0.398 0 0.732-0.157 1.001-0.472l0.592 0.546c-0.19 0.231-0.425 0.408-0.705 0.529s-0.594 0.182-0.939 0.182zM76.329 28.974h-0.637v1.604h-0.916v-3.982h0.916v1.61h0.66l1.047-1.61h0.973l-1.303 1.923 1.343 2.059h-1.047l-1.035-1.604zM79.866 26.596h0.916v2.594l1.9-2.594h0.865v3.982h-0.91v-2.588l-1.9 2.588h-0.87v-3.982zM85.562 26.596h0.916v2.594l1.9-2.594h0.865v3.982h-0.91v-2.588l-1.9 2.588h-0.87v-3.982zM87.4 26.34c-0.728 0-1.096-0.29-1.104-0.87h0.631c0.008 0.277 0.165 0.415 0.472 0.415 0.151 0 0.267-0.034 0.347-0.102 0.080-0.072 0.122-0.176 0.125-0.313h0.631c-0.004 0.284-0.097 0.501-0.279 0.649s-0.457 0.222-0.825 0.222z"></path>
<path fill="#fff" style="fill: var(--color2, #fff)" d="M74.263 14.949v2.829h-10.391v-12.942h10.15v2.829h-6.527v2.182h5.75v2.736h-5.75v2.367h6.767zM89.348 4.836v12.942h-3.014l-5.713-6.896v6.896h-3.587v-12.942h3.014l5.713 6.896v-6.896h3.587z"></path>
<path fill="#ff6b09" style="fill: var(--color3, #ff6b09)" d="M58.695 11.062c-0.189-0.423-0.45-0.84-0.831-1.322-0.962-1.209-1.255-3.905-1.258-3.931-0.013-0.129-0.104-0.236-0.225-0.275-0.124-0.039-0.257-0.003-0.345 0.094-1.147 1.283-0.665 3.265-0.404 4.057 0.072 0.217 0.15 0.472 0.205 0.731 0.424 2.091-0.394 3.038-0.587 3.229-0.186 0.052-0.313 0.026-0.43-0.1-0.404-0.443-0.538-1.894-0.349-3.785 0.039-0.385 0.029-0.731-0.026-1.054-0.399-2.324-1.86-3.815-2.233-4.338-1.023-1.513-1.128-4.031-1.131-4.053-0.003-0.12-0.072-0.226-0.179-0.278-0.104-0.052-0.231-0.045-0.329 0.023-1.708 1.16-1.561 3.956-1.323 5.518 0.055 0.362 0.163 0.731 0.349 1.196 0.662 1.665-0.13 3.814-0.137 3.834s-0.013 0.036-0.016 0.055c-0.101 0.53-0.27 0.847-0.46 0.847-0.020 0-0.039-0.003-0.062-0.010-0.231-0.048-0.352-0.294-0.355-0.507-0.013-2.757-2.78-3.685-2.81-3.694-0.124-0.039-0.261-0.003-0.345 0.097-0.088 0.1-0.104 0.239-0.046 0.356 0.033 0.068 0.137 0.365 0.065 1.416-0.062 0.944-0.235 1.878-0.512 2.773-0.658 2.146-0.554 4.179-0.548 4.276 0.506 5.505 8.423 6.469 13.122 3.368 0.515-0.339 0.935-0.727 1.245-1.154 1.734-2.392 0.714-5.64-0.046-7.366zM46.652 16.321c0.010 0.178-0.127 0.33-0.306 0.339h-0.020c-0.173 0-0.316-0.132-0.326-0.304-0.029-0.472-0.023-0.966 0.013-1.503 0.013-0.178 0.169-0.31 0.349-0.301 0.179 0.013 0.316 0.168 0.303 0.346-0.036 0.511-0.042 0.976-0.013 1.422zM46.811 13.457c-0.020 0.165-0.16 0.284-0.323 0.284-0.013 0-0.026 0-0.042-0.003-0.176-0.023-0.303-0.181-0.284-0.359l0.156-1.248c0.023-0.175 0.182-0.301 0.365-0.281 0.179 0.023 0.306 0.184 0.284 0.362l-0.156 1.244z"></path>
<path fill="#ff6b09" style="fill: var(--color3, #ff6b09)" d="M56.489 4.422c-0.178-0.027-0.3-0.192-0.272-0.368 0.020-0.131 0.138-0.804 0.458-1.142 0.123-0.13 0.329-0.137 0.461-0.015s0.138 0.327 0.015 0.457c-0.135 0.143-0.251 0.553-0.289 0.798-0.028 0.174-0.192 0.297-0.372 0.27z"></path>
<path fill="#ff6b09" style="fill: var(--color3, #ff6b09)" d="M44.608 6.032c-0.062-0.24-0.217-0.637-0.366-0.766-0.135-0.118-0.149-0.322-0.030-0.456s0.324-0.148 0.46-0.030c0.351 0.305 0.535 0.963 0.568 1.092 0.045 0.173-0.060 0.349-0.235 0.393-0.178 0.044-0.353-0.063-0.397-0.232z"></path>
</symbol>
<symbol id="icon-logo-main" viewBox="0 0 91 32">
<path fill="#111518" style="fill: var(--color4, #111518)" d="M13.608 4.836v12.942h-3.661v-5.047h-4.992v5.047h-3.661v-12.942h3.661v4.863h4.992v-4.863h3.661zM27.006 12.786c0 0.025-0.018 0.314-0.055 0.869h-7.285c0.148 0.518 0.431 0.918 0.851 1.202 0.431 0.271 0.968 0.407 1.609 0.407 0.481 0 0.894-0.068 1.239-0.203 0.357-0.136 0.715-0.357 1.072-0.666l1.849 1.923c-0.974 1.085-2.397 1.627-4.271 1.627-1.171 0-2.2-0.222-3.088-0.666s-1.578-1.060-2.071-1.849c-0.481-0.789-0.721-1.683-0.721-2.681 0-0.986 0.234-1.867 0.703-2.644 0.481-0.789 1.14-1.405 1.978-1.849s1.781-0.666 2.829-0.666c0.998 0 1.904 0.21 2.718 0.629 0.814 0.407 1.454 1.005 1.923 1.793 0.481 0.777 0.721 1.701 0.721 2.773zM21.663 10.086c-0.542 0-0.998 0.154-1.368 0.462-0.357 0.308-0.586 0.727-0.684 1.257h4.105c-0.099-0.53-0.333-0.949-0.703-1.257-0.357-0.308-0.807-0.462-1.35-0.462zM29.365 4.059h3.513v13.719h-3.513v-13.719zM35.901 4.059h3.513v13.719h-3.513v-13.719z"></path>
<path fill="#ff6b09" style="fill: var(--color3, #ff6b09)" d="M4.614 29.724h-1.849l-0.353 0.853h-0.944l1.775-3.982h0.91l1.781 3.982h-0.967l-0.353-0.853zM4.324 29.025l-0.631-1.525-0.631 1.525h1.263zM11.626 29.827v1.576h-0.853v-0.825h-2.81v0.825h-0.853l0.006-1.576h0.159c0.239-0.008 0.408-0.182 0.506-0.523s0.159-0.829 0.182-1.462l0.045-1.246h3.061v3.231h0.557zM8.776 27.927c-0.019 0.474-0.059 0.872-0.119 1.195-0.061 0.319-0.154 0.554-0.279 0.705h1.781v-2.48h-1.365l-0.017 0.58zM15.154 30.646c-0.406 0-0.774-0.087-1.104-0.262-0.326-0.178-0.584-0.423-0.774-0.734-0.186-0.315-0.279-0.669-0.279-1.064s0.093-0.747 0.279-1.058c0.19-0.315 0.448-0.559 0.774-0.734 0.33-0.178 0.7-0.267 1.109-0.267 0.345 0 0.656 0.061 0.933 0.182 0.281 0.121 0.516 0.296 0.705 0.523l-0.592 0.546c-0.269-0.311-0.603-0.466-1.001-0.466-0.246 0-0.466 0.055-0.66 0.165-0.193 0.106-0.345 0.256-0.455 0.449-0.106 0.193-0.159 0.413-0.159 0.66s0.053 0.466 0.159 0.66c0.11 0.193 0.262 0.345 0.455 0.455 0.193 0.106 0.413 0.159 0.66 0.159 0.398 0 0.732-0.157 1.001-0.472l0.592 0.546c-0.19 0.231-0.425 0.408-0.705 0.529s-0.594 0.182-0.939 0.182zM19.964 28.974h-0.637v1.604h-0.916v-3.982h0.916v1.61h0.66l1.047-1.61h0.973l-1.303 1.923 1.343 2.059h-1.047l-1.035-1.604zM23.502 26.596h0.916v2.594l1.9-2.594h0.865v3.982h-0.91v-2.588l-1.9 2.588h-0.87v-3.982zM29.198 26.596h0.916v2.594l1.9-2.594h0.865v3.982h-0.91v-2.588l-1.9 2.588h-0.87v-3.982zM31.036 26.34c-0.728 0-1.096-0.29-1.104-0.87h0.631c0.008 0.277 0.165 0.415 0.472 0.415 0.152 0 0.267-0.034 0.347-0.102 0.080-0.072 0.121-0.176 0.125-0.313h0.631c-0.004 0.284-0.097 0.501-0.279 0.649s-0.457 0.222-0.825 0.222z"></path>
<path fill="#111518" style="fill: var(--color4, #111518)" d="M40.226 29.724h-1.849l-0.353 0.853h-0.944l1.775-3.982h0.91l1.781 3.982h-0.967l-0.353-0.853zM39.936 29.025l-0.631-1.525-0.631 1.525h1.263zM46.75 26.596v3.982h-0.922v-1.633h-1.809v1.633h-0.922v-3.982h0.922v1.57h1.809v-1.57h0.922zM51.577 27.346h-1.894l0.006 3.231h-0.916v-3.982h2.81l-0.006 0.751zM56.224 26.596v3.982h-0.91v-3.231h-1.365l-0.028 0.831c-0.019 0.565-0.065 1.024-0.137 1.377-0.072 0.349-0.193 0.618-0.364 0.808-0.167 0.186-0.402 0.279-0.705 0.279-0.125 0-0.277-0.021-0.455-0.063l0.057-0.779c0.049 0.015 0.104 0.023 0.165 0.023 0.22 0 0.374-0.129 0.461-0.387 0.087-0.262 0.142-0.669 0.165-1.223l0.057-1.616h3.061zM58.242 26.596h0.916v2.594l1.9-2.594h0.865v3.982h-0.91v-2.588l-1.9 2.588h-0.87v-3.982zM63.938 26.596h0.916v2.594l1.9-2.594h0.865v3.982h-0.91v-2.588l-1.9 2.588h-0.87v-3.982zM65.776 26.34c-0.728 0-1.096-0.29-1.104-0.87h0.631c0.008 0.277 0.165 0.415 0.472 0.415 0.152 0 0.267-0.034 0.347-0.102 0.080-0.072 0.121-0.176 0.125-0.313h0.631c-0.004 0.284-0.097 0.501-0.279 0.649s-0.457 0.222-0.825 0.222zM71.518 30.646c-0.406 0-0.774-0.087-1.104-0.262-0.326-0.178-0.584-0.423-0.774-0.734-0.186-0.315-0.279-0.669-0.279-1.064s0.093-0.747 0.279-1.058c0.19-0.315 0.448-0.559 0.774-0.734 0.33-0.178 0.7-0.267 1.109-0.267 0.345 0 0.656 0.061 0.933 0.182 0.28 0.121 0.516 0.296 0.705 0.523l-0.592 0.546c-0.269-0.311-0.603-0.466-1.001-0.466-0.247 0-0.467 0.055-0.66 0.165-0.193 0.106-0.345 0.256-0.455 0.449-0.106 0.193-0.159 0.413-0.159 0.66s0.053 0.466 0.159 0.66c0.11 0.193 0.262 0.345 0.455 0.455 0.193 0.106 0.413 0.159 0.66 0.159 0.398 0 0.732-0.157 1.001-0.472l0.592 0.546c-0.19 0.231-0.425 0.408-0.705 0.529s-0.594 0.182-0.939 0.182zM76.329 28.974h-0.637v1.604h-0.916v-3.982h0.916v1.61h0.66l1.047-1.61h0.973l-1.303 1.923 1.343 2.059h-1.047l-1.035-1.604zM79.866 26.596h0.916v2.594l1.9-2.594h0.865v3.982h-0.91v-2.588l-1.9 2.588h-0.87v-3.982zM85.562 26.596h0.916v2.594l1.9-2.594h0.865v3.982h-0.91v-2.588l-1.9 2.588h-0.87v-3.982zM87.4 26.34c-0.728 0-1.096-0.29-1.104-0.87h0.631c0.008 0.277 0.165 0.415 0.472 0.415 0.151 0 0.267-0.034 0.347-0.102 0.080-0.072 0.122-0.176 0.125-0.313h0.631c-0.004 0.284-0.097 0.501-0.279 0.649s-0.457 0.222-0.825 0.222z"></path>
<path fill="#111518" style="fill: var(--color4, #111518)" d="M74.263 14.949v2.829h-10.391v-12.942h10.15v2.829h-6.527v2.182h5.75v2.736h-5.75v2.367h6.767zM89.348 4.836v12.942h-3.014l-5.713-6.896v6.896h-3.587v-12.942h3.014l5.713 6.896v-6.896h3.587z"></path>
<path fill="#ff6b09" style="fill: var(--color3, #ff6b09)" d="M58.695 11.062c-0.189-0.423-0.45-0.84-0.831-1.322-0.962-1.209-1.255-3.905-1.258-3.931-0.013-0.129-0.104-0.236-0.225-0.275-0.124-0.039-0.257-0.003-0.345 0.094-1.147 1.283-0.665 3.265-0.404 4.057 0.072 0.217 0.15 0.472 0.205 0.731 0.424 2.091-0.394 3.038-0.587 3.229-0.186 0.052-0.313 0.026-0.43-0.1-0.404-0.443-0.538-1.894-0.349-3.785 0.039-0.385 0.029-0.731-0.026-1.054-0.399-2.324-1.86-3.815-2.233-4.338-1.023-1.513-1.128-4.031-1.131-4.053-0.003-0.12-0.072-0.226-0.179-0.278-0.104-0.052-0.231-0.045-0.329 0.023-1.708 1.16-1.561 3.956-1.323 5.518 0.055 0.362 0.163 0.731 0.349 1.196 0.662 1.665-0.13 3.814-0.137 3.834s-0.013 0.036-0.016 0.055c-0.101 0.53-0.27 0.847-0.46 0.847-0.020 0-0.039-0.003-0.062-0.010-0.231-0.048-0.352-0.294-0.355-0.507-0.013-2.757-2.78-3.685-2.81-3.694-0.124-0.039-0.261-0.003-0.345 0.097-0.088 0.1-0.104 0.239-0.046 0.356 0.033 0.068 0.137 0.365 0.065 1.416-0.062 0.944-0.235 1.878-0.512 2.773-0.658 2.146-0.554 4.179-0.548 4.276 0.506 5.505 8.423 6.469 13.122 3.368 0.515-0.339 0.935-0.727 1.245-1.154 1.734-2.392 0.714-5.64-0.046-7.366zM46.652 16.321c0.010 0.178-0.127 0.33-0.306 0.339h-0.020c-0.173 0-0.316-0.132-0.326-0.304-0.029-0.472-0.023-0.966 0.013-1.503 0.013-0.178 0.169-0.31 0.349-0.301 0.179 0.013 0.316 0.168 0.303 0.346-0.036 0.511-0.042 0.976-0.013 1.422zM46.811 13.457c-0.020 0.165-0.16 0.284-0.323 0.284-0.013 0-0.026 0-0.042-0.003-0.176-0.023-0.303-0.181-0.284-0.359l0.156-1.248c0.023-0.175 0.182-0.301 0.365-0.281 0.179 0.023 0.306 0.184 0.284 0.362l-0.156 1.244z"></path>
<path fill="#ff6b09" style="fill: var(--color3, #ff6b09)" d="M56.489 4.422c-0.178-0.027-0.3-0.192-0.272-0.368 0.020-0.131 0.138-0.804 0.458-1.142 0.123-0.13 0.329-0.137 0.461-0.015s0.138 0.327 0.015 0.457c-0.135 0.143-0.251 0.553-0.289 0.798-0.028 0.174-0.192 0.297-0.372 0.27z"></path>
<path fill="#ff6b09" style="fill: var(--color3, #ff6b09)" d="M44.608 6.032c-0.062-0.24-0.217-0.637-0.366-0.766-0.135-0.118-0.149-0.322-0.030-0.456s0.324-0.148 0.46-0.030c0.351 0.305 0.535 0.963 0.568 1.092 0.045 0.173-0.060 0.349-0.235 0.393-0.178 0.044-0.353-0.063-0.397-0.232z"></path>
</symbol>
<symbol id="icon-logo-phone-white" viewBox="0 0 88 32">
<path fill="#fff" style="fill: var(--color2, #fff)" d="M12.345 4.848v12.975h-3.67v-5.060h-5.005v5.060h-3.67v-12.975h3.67v4.875h5.005v-4.875h3.67z"></path>
<path fill="#fff" style="fill: var(--color2, #fff)" d="M25.777 12.818c0 0.025-0.019 0.315-0.056 0.871h-7.303c0.148 0.519 0.433 0.921 0.853 1.205 0.433 0.272 0.97 0.408 1.613 0.408 0.482 0 0.896-0.068 1.242-0.204 0.358-0.136 0.717-0.358 1.075-0.667l1.854 1.928c-0.976 1.087-2.403 1.631-4.282 1.631-1.174 0-2.206-0.222-3.096-0.667s-1.582-1.063-2.076-1.854c-0.482-0.791-0.723-1.687-0.723-2.688 0-0.989 0.235-1.872 0.704-2.651 0.482-0.791 1.143-1.409 1.983-1.854s1.786-0.667 2.836-0.667c1.001 0 1.909 0.21 2.725 0.63 0.816 0.408 1.458 1.007 1.928 1.798 0.482 0.778 0.723 1.705 0.723 2.78zM20.42 10.112c-0.544 0-1.001 0.154-1.372 0.463-0.358 0.309-0.587 0.729-0.686 1.26h4.115c-0.099-0.531-0.334-0.951-0.704-1.26-0.358-0.309-0.809-0.463-1.353-0.463z"></path>
<path fill="#fff" style="fill: var(--color2, #fff)" d="M28.142 4.069h3.522v13.753h-3.522v-13.753z"></path>
<path fill="#fff" style="fill: var(--color2, #fff)" d="M34.694 4.069h3.522v13.753h-3.522v-13.753z"></path>
<path fill="#fff" style="fill: var(--color2, #fff)" d="M3.328 29.8h-1.854l-0.354 0.855h-0.947l1.779-3.992h0.913l1.785 3.992h-0.97l-0.354-0.855zM3.037 29.098l-0.633-1.528-0.633 1.528h1.266z"></path>
<path fill="#fff" style="fill: var(--color2, #fff)" d="M10.358 29.902v1.58h-0.855v-0.827h-2.817v0.827h-0.856l0.006-1.58h0.16c0.24-0.008 0.409-0.183 0.508-0.525s0.16-0.831 0.183-1.466l0.046-1.249h3.068v3.239h0.559zM7.501 27.997c-0.019 0.475-0.059 0.874-0.12 1.198-0.061 0.319-0.154 0.555-0.279 0.707h1.785v-2.487h-1.369l-0.017 0.582z"></path>
<path fill="#fff" style="fill: var(--color2, #fff)" d="M13.895 30.724c-0.407 0-0.776-0.087-1.106-0.262-0.327-0.179-0.585-0.424-0.776-0.736-0.186-0.316-0.28-0.671-0.28-1.066s0.093-0.749 0.28-1.061c0.19-0.316 0.449-0.561 0.776-0.736 0.331-0.179 0.702-0.268 1.112-0.268 0.346 0 0.658 0.061 0.935 0.183 0.281 0.122 0.517 0.297 0.707 0.525l-0.593 0.548c-0.27-0.312-0.604-0.468-1.004-0.468-0.247 0-0.468 0.055-0.662 0.165-0.194 0.106-0.346 0.257-0.456 0.451-0.106 0.194-0.16 0.414-0.16 0.662s0.053 0.468 0.16 0.662c0.11 0.194 0.262 0.346 0.456 0.456 0.194 0.106 0.414 0.16 0.662 0.16 0.399 0 0.734-0.158 1.004-0.473l0.593 0.548c-0.19 0.232-0.426 0.409-0.707 0.53s-0.595 0.183-0.941 0.183z"></path>
<path fill="#fff" style="fill: var(--color2, #fff)" d="M18.717 29.047h-0.639v1.608h-0.918v-3.992h0.918v1.614h0.662l1.049-1.614h0.975l-1.306 1.928 1.346 2.065h-1.049l-1.038-1.608z"></path>
<path fill="#fff" style="fill: var(--color2, #fff)" d="M22.264 26.663h0.918v2.601l1.905-2.601h0.867v3.992h-0.913v-2.595l-1.905 2.595h-0.873v-3.992z"></path>
<path fill="#fff" style="fill: var(--color2, #fff)" d="M27.975 26.663h0.918v2.601l1.905-2.601h0.867v3.992h-0.913v-2.595l-1.905 2.595h-0.873v-3.992zM29.817 26.406c-0.73 0-1.099-0.291-1.106-0.873h0.633c0.008 0.278 0.165 0.416 0.473 0.416 0.152 0 0.268-0.034 0.348-0.103 0.080-0.072 0.122-0.177 0.126-0.314h0.633c-0.004 0.285-0.097 0.502-0.279 0.65s-0.458 0.222-0.827 0.222z"></path>
<path fill="#fff" style="fill: var(--color2, #fff)" d="M39.031 29.8h-1.854l-0.354 0.855h-0.947l1.779-3.992h0.912l1.785 3.992h-0.969l-0.354-0.855zM38.74 29.098l-0.633-1.528-0.633 1.528h1.266z"></path>
<path fill="#fff" style="fill: var(--color2, #fff)" d="M45.571 26.663v3.992h-0.924v-1.637h-1.814v1.637h-0.924v-3.992h0.924v1.574h1.814v-1.574h0.924z"></path>
<path fill="#fff" style="fill: var(--color2, #fff)" d="M50.41 27.416h-1.899l0.006 3.239h-0.918v-3.992h2.817l-0.006 0.753z"></path>
<path fill="#fff" style="fill: var(--color2, #fff)" d="M55.069 26.663v3.992h-0.913v-3.239h-1.369l-0.028 0.833c-0.019 0.567-0.065 1.027-0.137 1.38-0.072 0.35-0.194 0.62-0.365 0.81-0.167 0.186-0.403 0.279-0.707 0.279-0.125 0-0.278-0.021-0.456-0.063l0.057-0.781c0.049 0.015 0.105 0.023 0.165 0.023 0.221 0 0.374-0.129 0.462-0.388 0.087-0.262 0.143-0.671 0.165-1.226l0.057-1.62h3.068z"></path>
<path fill="#fff" style="fill: var(--color2, #fff)" d="M57.092 26.663h0.918v2.601l1.905-2.601h0.867v3.992h-0.913v-2.595l-1.905 2.595h-0.873v-3.992z"></path>
<path fill="#fff" style="fill: var(--color2, #fff)" d="M62.803 26.663h0.918v2.601l1.905-2.601h0.867v3.992h-0.913v-2.595l-1.905 2.595h-0.873v-3.992zM64.645 26.406c-0.73 0-1.099-0.291-1.107-0.873h0.633c0.007 0.278 0.165 0.416 0.473 0.416 0.152 0 0.268-0.034 0.348-0.103 0.080-0.072 0.122-0.177 0.125-0.314h0.633c-0.004 0.285-0.097 0.502-0.279 0.65s-0.458 0.222-0.827 0.222z"></path>
<path fill="#fff" style="fill: var(--color2, #fff)" d="M70.401 30.724c-0.407 0-0.776-0.087-1.106-0.262-0.327-0.179-0.586-0.424-0.776-0.736-0.186-0.316-0.279-0.671-0.279-1.066s0.093-0.749 0.279-1.061c0.19-0.316 0.449-0.561 0.776-0.736 0.331-0.179 0.701-0.268 1.112-0.268 0.346 0 0.658 0.061 0.935 0.183 0.281 0.122 0.517 0.297 0.707 0.525l-0.593 0.548c-0.27-0.312-0.605-0.468-1.004-0.468-0.247 0-0.468 0.055-0.662 0.165-0.194 0.106-0.346 0.257-0.456 0.451-0.106 0.194-0.16 0.414-0.16 0.662s0.053 0.468 0.16 0.662c0.11 0.194 0.262 0.346 0.456 0.456 0.194 0.106 0.414 0.16 0.662 0.16 0.399 0 0.734-0.158 1.004-0.473l0.593 0.548c-0.19 0.232-0.426 0.409-0.707 0.53s-0.595 0.183-0.941 0.183z"></path>
<path fill="#fff" style="fill: var(--color2, #fff)" d="M75.224 29.047h-0.639v1.608h-0.918v-3.992h0.918v1.614h0.662l1.049-1.614h0.975l-1.306 1.928 1.346 2.065h-1.049l-1.038-1.608z"></path>
<path fill="#fff" style="fill: var(--color2, #fff)" d="M78.771 26.663h0.918v2.601l1.905-2.601h0.867v3.992h-0.913v-2.595l-1.905 2.595h-0.873v-3.992z"></path>
<path fill="#fff" style="fill: var(--color2, #fff)" d="M84.481 26.663h0.918v2.601l1.905-2.601h0.867v3.992h-0.913v-2.595l-1.905 2.595h-0.873v-3.992zM86.324 26.406c-0.73 0-1.099-0.291-1.106-0.873h0.633c0.008 0.278 0.165 0.416 0.473 0.416 0.152 0 0.268-0.034 0.348-0.103 0.080-0.072 0.122-0.177 0.125-0.314h0.633c-0.004 0.285-0.097 0.502-0.279 0.65s-0.458 0.222-0.827 0.222z"></path>
<path fill="#fff" style="fill: var(--color2, #fff)" d="M73.153 14.987v2.836h-10.417v-12.975h10.176v2.836h-6.543v2.187h5.765v2.743h-5.765v2.373h6.784z"></path>
<path fill="#fff" style="fill: var(--color2, #fff)" d="M88.276 4.848v12.975h-3.021l-5.728-6.914v6.914h-3.596v-12.975h3.021l5.728 6.914v-6.914h3.596z"></path>
<path fill="#ff6b09" style="fill: var(--color3, #ff6b09)" d="M57.546 11.090c-0.189-0.424-0.451-0.842-0.833-1.325-0.964-1.212-1.258-3.915-1.261-3.94-0.013-0.13-0.105-0.237-0.225-0.275-0.124-0.039-0.258-0.003-0.346 0.094-1.15 1.286-0.667 3.273-0.405 4.067 0.072 0.217 0.15 0.473 0.206 0.732 0.425 2.097-0.395 3.046-0.588 3.237-0.186 0.052-0.314 0.026-0.431-0.101-0.405-0.444-0.539-1.899-0.35-3.795 0.039-0.386 0.029-0.732-0.026-1.056-0.4-2.33-1.865-3.825-2.238-4.349-1.026-1.517-1.131-4.041-1.134-4.064-0.003-0.12-0.072-0.227-0.18-0.279-0.105-0.052-0.232-0.045-0.33 0.023-1.712 1.163-1.565 3.966-1.327 5.532 0.056 0.363 0.163 0.732 0.35 1.199 0.663 1.669-0.131 3.824-0.137 3.843s-0.013 0.036-0.016 0.055c-0.101 0.531-0.271 0.849-0.461 0.849-0.020 0-0.039-0.003-0.062-0.010-0.232-0.049-0.353-0.295-0.356-0.509-0.013-2.764-2.787-3.694-2.817-3.704-0.124-0.039-0.261-0.003-0.346 0.097-0.088 0.1-0.105 0.24-0.046 0.356 0.033 0.068 0.137 0.366 0.065 1.419-0.062 0.946-0.235 1.883-0.513 2.78-0.66 2.152-0.555 4.19-0.549 4.287 0.507 5.519 8.444 6.486 13.155 3.377 0.516-0.34 0.938-0.729 1.248-1.157 1.738-2.398 0.716-5.655-0.046-7.385zM45.472 16.362c0.010 0.178-0.127 0.33-0.307 0.34h-0.020c-0.173 0-0.317-0.133-0.327-0.305-0.029-0.473-0.023-0.969 0.013-1.507 0.013-0.178 0.17-0.311 0.35-0.301 0.18 0.013 0.317 0.168 0.304 0.347-0.036 0.512-0.042 0.979-0.013 1.426zM45.632 13.491c-0.020 0.165-0.16 0.285-0.323 0.285-0.013 0-0.026 0-0.042-0.003-0.176-0.023-0.304-0.181-0.284-0.36l0.157-1.251c0.023-0.175 0.183-0.301 0.366-0.282 0.18 0.023 0.307 0.185 0.284 0.363l-0.157 1.248z"></path>
<path fill="#ff6b09" style="fill: var(--color3, #ff6b09)" d="M55.335 4.433c-0.178-0.027-0.3-0.193-0.273-0.369 0.020-0.132 0.138-0.806 0.459-1.145 0.123-0.131 0.33-0.138 0.462-0.015s0.138 0.327 0.015 0.458c-0.136 0.144-0.251 0.554-0.29 0.8-0.028 0.175-0.192 0.298-0.373 0.271z"></path>
<path fill="#ff6b09" style="fill: var(--color3, #ff6b09)" d="M43.423 6.048c-0.063-0.241-0.218-0.638-0.367-0.768-0.136-0.118-0.149-0.323-0.030-0.457s0.325-0.149 0.461-0.030c0.352 0.306 0.536 0.966 0.569 1.094 0.045 0.173-0.061 0.35-0.235 0.394-0.178 0.045-0.353-0.063-0.398-0.233z"></path>
</symbol>
<symbol id="icon-logo-phone" viewBox="0 0 88 32">
<path fill="#111518" style="fill: var(--color4, #111518)" d="M12.345 4.848v12.975h-3.67v-5.060h-5.005v5.060h-3.67v-12.975h3.67v4.875h5.005v-4.875h3.67z"></path>
<path fill="#111518" style="fill: var(--color4, #111518)" d="M25.777 12.818c0 0.025-0.019 0.315-0.056 0.871h-7.303c0.148 0.519 0.433 0.921 0.853 1.205 0.433 0.272 0.97 0.408 1.613 0.408 0.482 0 0.896-0.068 1.242-0.204 0.358-0.136 0.717-0.358 1.075-0.667l1.854 1.928c-0.976 1.087-2.403 1.631-4.282 1.631-1.174 0-2.206-0.222-3.096-0.667s-1.582-1.063-2.076-1.854c-0.482-0.791-0.723-1.687-0.723-2.688 0-0.989 0.235-1.872 0.704-2.651 0.482-0.791 1.143-1.409 1.983-1.854s1.786-0.667 2.836-0.667c1.001 0 1.909 0.21 2.725 0.63 0.816 0.408 1.458 1.007 1.928 1.798 0.482 0.778 0.723 1.705 0.723 2.78zM20.42 10.112c-0.544 0-1.001 0.154-1.372 0.463-0.358 0.309-0.587 0.729-0.686 1.26h4.115c-0.099-0.531-0.334-0.951-0.704-1.26-0.358-0.309-0.809-0.463-1.353-0.463z"></path>
<path fill="#111518" style="fill: var(--color4, #111518)" d="M28.142 4.069h3.522v13.753h-3.522v-13.753z"></path>
<path fill="#111518" style="fill: var(--color4, #111518)" d="M34.694 4.069h3.522v13.753h-3.522v-13.753z"></path>
<path fill="#111518" style="fill: var(--color4, #111518)" d="M3.328 29.8h-1.854l-0.354 0.855h-0.947l1.779-3.992h0.913l1.785 3.992h-0.97l-0.354-0.855zM3.037 29.098l-0.633-1.528-0.633 1.528h1.266z"></path>
<path fill="#111518" style="fill: var(--color4, #111518)" d="M10.358 29.902v1.58h-0.855v-0.827h-2.817v0.827h-0.856l0.006-1.58h0.16c0.24-0.008 0.409-0.183 0.508-0.525s0.16-0.831 0.183-1.466l0.046-1.249h3.068v3.239h0.559zM7.501 27.997c-0.019 0.475-0.059 0.874-0.12 1.198-0.061 0.319-0.154 0.555-0.279 0.707h1.785v-2.487h-1.369l-0.017 0.582z"></path>
<path fill="#111518" style="fill: var(--color4, #111518)" d="M13.895 30.724c-0.407 0-0.776-0.087-1.106-0.262-0.327-0.179-0.585-0.424-0.776-0.736-0.186-0.316-0.28-0.671-0.28-1.066s0.093-0.749 0.28-1.061c0.19-0.316 0.449-0.561 0.776-0.736 0.331-0.179 0.702-0.268 1.112-0.268 0.346 0 0.658 0.061 0.935 0.183 0.281 0.122 0.517 0.297 0.707 0.525l-0.593 0.548c-0.27-0.312-0.604-0.468-1.004-0.468-0.247 0-0.468 0.055-0.662 0.165-0.194 0.106-0.346 0.257-0.456 0.451-0.106 0.194-0.16 0.414-0.16 0.662s0.053 0.468 0.16 0.662c0.11 0.194 0.262 0.346 0.456 0.456 0.194 0.106 0.414 0.16 0.662 0.16 0.399 0 0.734-0.158 1.004-0.473l0.593 0.548c-0.19 0.232-0.426 0.409-0.707 0.53s-0.595 0.183-0.941 0.183z"></path>
<path fill="#111518" style="fill: var(--color4, #111518)" d="M18.717 29.047h-0.639v1.608h-0.918v-3.992h0.918v1.614h0.662l1.049-1.614h0.975l-1.306 1.928 1.346 2.065h-1.049l-1.038-1.608z"></path>
<path fill="#111518" style="fill: var(--color4, #111518)" d="M22.264 26.663h0.918v2.601l1.905-2.601h0.867v3.992h-0.913v-2.595l-1.905 2.595h-0.873v-3.992z"></path>
<path fill="#111518" style="fill: var(--color4, #111518)" d="M27.975 26.663h0.918v2.601l1.905-2.601h0.867v3.992h-0.913v-2.595l-1.905 2.595h-0.873v-3.992zM29.817 26.406c-0.73 0-1.099-0.291-1.106-0.873h0.633c0.008 0.278 0.165 0.416 0.473 0.416 0.152 0 0.268-0.034 0.348-0.103 0.080-0.072 0.122-0.177 0.126-0.314h0.633c-0.004 0.285-0.097 0.502-0.279 0.65s-0.458 0.222-0.827 0.222z"></path>
<path fill="#111518" style="fill: var(--color4, #111518)" d="M39.031 29.8h-1.854l-0.354 0.855h-0.947l1.779-3.992h0.912l1.785 3.992h-0.969l-0.354-0.855zM38.74 29.098l-0.633-1.528-0.633 1.528h1.266z"></path>
<path fill="#111518" style="fill: var(--color4, #111518)" d="M45.571 26.663v3.992h-0.924v-1.637h-1.814v1.637h-0.924v-3.992h0.924v1.574h1.814v-1.574h0.924z"></path>
<path fill="#111518" style="fill: var(--color4, #111518)" d="M50.41 27.416h-1.899l0.006 3.239h-0.918v-3.992h2.817l-0.006 0.753z"></path>
<path fill="#111518" style="fill: var(--color4, #111518)" d="M55.069 26.663v3.992h-0.913v-3.239h-1.369l-0.028 0.833c-0.019 0.567-0.065 1.027-0.137 1.38-0.072 0.35-0.194 0.62-0.365 0.81-0.167 0.186-0.403 0.279-0.707 0.279-0.125 0-0.278-0.021-0.456-0.063l0.057-0.781c0.049 0.015 0.105 0.023 0.165 0.023 0.221 0 0.374-0.129 0.462-0.388 0.087-0.262 0.143-0.671 0.165-1.226l0.057-1.62h3.068z"></path>
<path fill="#111518" style="fill: var(--color4, #111518)" d="M57.092 26.663h0.918v2.601l1.905-2.601h0.867v3.992h-0.913v-2.595l-1.905 2.595h-0.873v-3.992z"></path>
<path fill="#111518" style="fill: var(--color4, #111518)" d="M62.803 26.663h0.918v2.601l1.905-2.601h0.867v3.992h-0.913v-2.595l-1.905 2.595h-0.873v-3.992zM64.645 26.406c-0.73 0-1.099-0.291-1.107-0.873h0.633c0.007 0.278 0.165 0.416 0.473 0.416 0.152 0 0.268-0.034 0.348-0.103 0.080-0.072 0.122-0.177 0.125-0.314h0.633c-0.004 0.285-0.097 0.502-0.279 0.65s-0.458 0.222-0.827 0.222z"></path>
<path fill="#111518" style="fill: var(--color4, #111518)" d="M70.401 30.724c-0.407 0-0.776-0.087-1.106-0.262-0.327-0.179-0.586-0.424-0.776-0.736-0.186-0.316-0.279-0.671-0.279-1.066s0.093-0.749 0.279-1.061c0.19-0.316 0.449-0.561 0.776-0.736 0.331-0.179 0.701-0.268 1.112-0.268 0.346 0 0.658 0.061 0.935 0.183 0.281 0.122 0.517 0.297 0.707 0.525l-0.593 0.548c-0.27-0.312-0.605-0.468-1.004-0.468-0.247 0-0.468 0.055-0.662 0.165-0.194 0.106-0.346 0.257-0.456 0.451-0.106 0.194-0.16 0.414-0.16 0.662s0.053 0.468 0.16 0.662c0.11 0.194 0.262 0.346 0.456 0.456 0.194 0.106 0.414 0.16 0.662 0.16 0.399 0 0.734-0.158 1.004-0.473l0.593 0.548c-0.19 0.232-0.426 0.409-0.707 0.53s-0.595 0.183-0.941 0.183z"></path>
<path fill="#111518" style="fill: var(--color4, #111518)" d="M75.224 29.047h-0.639v1.608h-0.918v-3.992h0.918v1.614h0.662l1.049-1.614h0.975l-1.306 1.928 1.346 2.065h-1.049l-1.038-1.608z"></path>
<path fill="#111518" style="fill: var(--color4, #111518)" d="M78.771 26.663h0.918v2.601l1.905-2.601h0.867v3.992h-0.913v-2.595l-1.905 2.595h-0.873v-3.992z"></path>
<path fill="#111518" style="fill: var(--color4, #111518)" d="M84.481 26.663h0.918v2.601l1.905-2.601h0.867v3.992h-0.913v-2.595l-1.905 2.595h-0.873v-3.992zM86.324 26.406c-0.73 0-1.099-0.291-1.106-0.873h0.633c0.008 0.278 0.165 0.416 0.473 0.416 0.152 0 0.268-0.034 0.348-0.103 0.080-0.072 0.122-0.177 0.125-0.314h0.633c-0.004 0.285-0.097 0.502-0.279 0.65s-0.458 0.222-0.827 0.222z"></path>
<path fill="#111518" style="fill: var(--color4, #111518)" d="M73.153 14.987v2.836h-10.417v-12.975h10.176v2.836h-6.543v2.187h5.765v2.743h-5.765v2.373h6.784z"></path>
<path fill="#111518" style="fill: var(--color4, #111518)" d="M88.276 4.848v12.975h-3.021l-5.728-6.914v6.914h-3.596v-12.975h3.021l5.728 6.914v-6.914h3.596z"></path>
<path fill="#ff6b09" style="fill: var(--color3, #ff6b09)" d="M57.546 11.090c-0.189-0.424-0.451-0.842-0.833-1.325-0.964-1.212-1.258-3.915-1.261-3.94-0.013-0.13-0.105-0.237-0.225-0.275-0.124-0.039-0.258-0.003-0.346 0.094-1.15 1.286-0.667 3.273-0.405 4.067 0.072 0.217 0.15 0.473 0.206 0.732 0.425 2.097-0.395 3.046-0.588 3.237-0.186 0.052-0.314 0.026-0.431-0.101-0.405-0.444-0.539-1.899-0.35-3.795 0.039-0.386 0.029-0.732-0.026-1.056-0.4-2.33-1.865-3.825-2.238-4.349-1.026-1.517-1.131-4.041-1.134-4.064-0.003-0.12-0.072-0.227-0.18-0.279-0.105-0.052-0.232-0.045-0.33 0.023-1.712 1.163-1.565 3.966-1.327 5.532 0.056 0.363 0.163 0.732 0.35 1.199 0.663 1.669-0.131 3.824-0.137 3.843s-0.013 0.036-0.016 0.055c-0.101 0.531-0.271 0.849-0.461 0.849-0.020 0-0.039-0.003-0.062-0.010-0.232-0.049-0.353-0.295-0.356-0.509-0.013-2.764-2.787-3.694-2.817-3.704-0.124-0.039-0.261-0.003-0.346 0.097-0.088 0.1-0.105 0.24-0.046 0.356 0.033 0.068 0.137 0.366 0.065 1.419-0.062 0.946-0.235 1.883-0.513 2.78-0.66 2.152-0.555 4.19-0.549 4.287 0.507 5.519 8.444 6.486 13.155 3.377 0.516-0.34 0.938-0.729 1.248-1.157 1.738-2.398 0.716-5.655-0.046-7.385zM45.472 16.362c0.010 0.178-0.127 0.33-0.307 0.34h-0.020c-0.173 0-0.317-0.133-0.327-0.305-0.029-0.473-0.023-0.969 0.013-1.507 0.013-0.178 0.17-0.311 0.35-0.301 0.18 0.013 0.317 0.168 0.304 0.347-0.036 0.512-0.042 0.979-0.013 1.426zM45.632 13.491c-0.020 0.165-0.16 0.285-0.323 0.285-0.013 0-0.026 0-0.042-0.003-0.176-0.023-0.304-0.181-0.284-0.36l0.157-1.251c0.023-0.175 0.183-0.301 0.366-0.282 0.18 0.023 0.307 0.185 0.284 0.363l-0.157 1.248z"></path>
<path fill="#ff6b09" style="fill: var(--color3, #ff6b09)" d="M55.335 4.433c-0.178-0.027-0.3-0.193-0.273-0.369 0.020-0.132 0.138-0.806 0.459-1.145 0.123-0.131 0.33-0.138 0.462-0.015s0.138 0.327 0.015 0.458c-0.136 0.144-0.251 0.554-0.29 0.8-0.028 0.175-0.192 0.298-0.373 0.271z"></path>
<path fill="#ff6b09" style="fill: var(--color3, #ff6b09)" d="M43.423 6.048c-0.063-0.241-0.218-0.638-0.367-0.768-0.136-0.118-0.149-0.323-0.030-0.457s0.325-0.149 0.461-0.030c0.352 0.306 0.536 0.966 0.569 1.094 0.045 0.173-0.061 0.35-0.235 0.394-0.178 0.045-0.353-0.063-0.398-0.233z"></path>
</symbol>
<symbol id="icon-menu-btn-closed" viewBox="0 0 32 32">
<path d="M23.733 10.304l-1.504-1.504-5.963 5.963-5.963-5.963-1.504 1.504 5.963 5.963-5.963 5.963 1.504 1.504 5.963-5.963 5.963 5.963 1.504-1.504-5.963-5.963 5.963-5.963z"></path>
</symbol>
 <symbol id="icon-menu-btn" viewBox="0 0 32 32">
<path d="M6.4 11.733v-2.133h19.2v2.133h-19.2zM6.4 17.067h19.2v-2.133h-19.2v2.133zM6.4 22.4h19.2v-2.133h-19.2v2.133z"></path>
</symbol>
<symbol id="icon-mobile-learning" viewBox="0 0 42 42" fill="none" xmlns="http://www.w3.org/2000/svg">
<path d="M38.6619.336H18.4873c-1.3133 0-2.3817 1.0684-2.3817 2.3817v8.3512l-14.988 6.2908a.4872.4872 0 00-.298.415.4884.4884 0 00.2358.4537l1.9114 1.144v12.1909c-.9775.2228-1.711 1.0977-1.711 2.1444v1.1751c0 .2694.2187.4881.4882.4881h3.4227a.4883.4883 0 00.488-.4881v-1.1751c0-1.0453-.7335-1.919-1.7117-2.1432V19.9567l1.5113.9045c-.0465.3485-.006-.6074-.0216 5.6757 0 2.0653 5.2902 3.1717 10.6729 3.2351v9.5138c0 .4914.1505.9485.4078 1.3278.428.6332 1.1525 1.0504 1.9726 1.0504h20.1746c1.3121 0 2.3795-1.0677 2.3795-2.3795 0 .0652-.0027-2.0152 0-36.5664 0-1.2956-1.0712-2.382-2.3782-2.382zM4.6786 33.7078v.687H2.2321v-.687c0-.6763.5475-1.2266 1.2202-1.2266.6762 0 1.2263.5503 1.2263 1.2266zm33.9833 6.9776H18.4873a1.4069 1.4069 0 01-1.1646-.617 1.3953 1.3953 0 01-.2399-.7838v-3.2978h22.9786v3.2991c0 .7645-.6371 1.3995-1.3995 1.3995zm1.3995-5.6748H17.0818v-5.2356c2.6281-.0301 10.6793-.6088 10.6793-3.238-.0029-3.947.007-5.5476-.0124-5.683l4.383-2.6255a.4883.4883 0 00-.0622-.8687l-14.9877-6.2909V6.9921h22.9796v28.0184zM16.5937 23.2962c-2.7074 0-7.9202.3497-10.1848 1.8285.0143-4.5231-.157-4.2286.4-4.6121 1.4068-1.036 5.4304-1.7592 9.7848-1.7592 1.8992 0 10.1912.5221 10.1912 2.2778v4.0941c-2.2858-1.4925-7.4722-1.8291-10.1912-1.8291zm.4891-20.5781c0-.7738.6295-1.4033 1.4032-1.4033h20.1746c.7745 0 1.4008.6383 1.4008 1.403v3.298H17.0828V2.7182zm-.4891 9.2045l14.2091 5.9639-3.5208 2.1069c-1.8718-1.8562-8.0636-2.2162-10.6883-2.2162-2.6281 0-8.8204.3611-10.6882 2.2168l-3.5218-2.1075 14.21-5.9639zM6.4089 26.5369c0-.79 3.498-2.2645 10.1848-2.2645 6.691 0 10.1912 1.4745 10.1912 2.2645 0 .7906-3.5002 2.265-10.1912 2.265-6.6868 0-10.1848-1.4744-10.1848-2.265z" fill="#FF6B09"/>
</symbol>
<symbol id="icon-call" viewBox="0 0 32 32"><path d="M4.656 0.003c-0.553 0.025-1.044 0.27-1.391 0.65l-0.001 0.002-2.592 2.85c0.003-0.008-0.010-0.006-0.083 0.096-0.038 0.050-0.069 0.109-0.090 0.172l-0.001 0.004c-1.056 3.365-0.347 7.066 1.376 10.586 1.725 3.52 4.477 6.886 7.634 9.651 3.158 2.763 6.722 4.926 10.12 5.998 3.397 1.072 6.691 1.059 9.133-0.712 0.027-0.021 0.051-0.042 0.073-0.065l0-0c0.064-0.064 0.067-0.072 0.056-0.062l0.010-0.013 2.582-2.84c0.322-0.357 0.519-0.831 0.519-1.352 0-0.587-0.25-1.116-0.65-1.485l-6.128-5.572c-0.357-0.322-0.832-0.52-1.353-0.52-0.588 0-1.117 0.251-1.486 0.651l-0.001 0.001-2.771 3.048c-2.25-0.653-4.173-1.757-6.024-3.44-1.851-1.678-3.133-3.49-3.994-5.669l2.771-3.048c0.322-0.356 0.52-0.831 0.52-1.352 0-0.588-0.251-1.117-0.653-1.486l-0.001-0.001-6.125-5.573c-0.355-0.324-0.829-0.522-1.35-0.522-0.035 0-0.070 0.001-0.105 0.003l0.005-0zM4.715 1.251c0.008-0 0.018-0.001 0.028-0.001 0.198 0 0.379 0.077 0.513 0.203l-0-0 6.125 5.571c0.155 0.136 0.253 0.334 0.253 0.555 0 0.196-0.077 0.374-0.202 0.506l0-0-3.064 3.366c-0.101 0.111-0.163 0.26-0.163 0.423 0 0.078 0.014 0.152 0.040 0.221l-0.001-0.004c0.93 2.536 2.43 4.618 4.493 6.494 2.064 1.877 4.275 3.174 6.89 3.859 0.047 0.013 0.102 0.020 0.158 0.020 0.184 0 0.35-0.079 0.466-0.205l0-0 3.066-3.366c0.136-0.154 0.333-0.251 0.553-0.251 0.196 0 0.374 0.077 0.506 0.202l6.128 5.571c0.154 0.136 0.25 0.333 0.25 0.553 0 0.196-0.077 0.375-0.202 0.507l0-0-2.56 2.816c-2.005 1.437-4.827 1.518-7.987 0.52-3.173-1.002-6.618-3.075-9.666-5.744-3.050-2.669-5.702-5.926-7.333-9.254-1.614-3.293-2.2-6.624-1.312-9.558l2.502-2.749c0.129-0.145 0.312-0.24 0.518-0.251l0.002-0z"></path>
</symbol>
<symbol id="icon-open-book" viewBox="0 0 26 32">
<path d="M3.719 6.407h7.654v0.573h-7.654v-0.573z"></path>
<path d="M4.865 8.544h6.508v0.573h-6.508v-0.573z"></path>
<path d="M3.719 10.681h7.654v0.573h-7.654v-0.573z"></path>
<path d="M4.865 12.818h6.508v0.573h-6.508v-0.573z"></path>
<path d="M3.719 14.955h7.654v0.573h-7.654v-0.573z"></path>
<path d="M4.865 17.092h6.508v0.573h-6.508v-0.573z"></path>
<path d="M14.226 6.407h7.654v0.573h-7.654v-0.573z"></path>
<path d="M14.226 8.544h6.508v0.573h-6.508v-0.573z"></path>
<path d="M14.226 10.681h7.654v0.573h-7.654v-0.573z"></path>
<path d="M14.226 12.818h6.508v0.573h-6.508v-0.573z"></path>
<path d="M14.226 14.955h7.654v0.573h-7.654v-0.573z"></path>
<path d="M14.226 17.092h6.508v0.573h-6.508v-0.573z"></path>
<path d="M24.645 5.754h-1.051v-1.578c0-0.158-0.128-0.287-0.287-0.287h-8.566c-0.836 0-1.561 0.452-1.941 1.128-0.38-0.677-1.105-1.128-1.941-1.128h-8.566c-0.158 0-0.287 0.128-0.287 0.287v1.578h-1.051c-0.158 0-0.287 0.128-0.287 0.287v15.383c0 0.158 0.128 0.287 0.287 0.287 2.877 0 20.802 0 23.69 0 0.158 0 0.287-0.128 0.287-0.287v-15.383c0-0.158-0.128-0.287-0.287-0.287zM14.741 4.463h8.28c0 2.566 0 9.326 0 15.349h-8.891c-0.394 0-0.788 0.166-1.043 0.382v-14.080c0-0.915 0.732-1.651 1.654-1.651zM2.579 4.463h8.28c0.896 0 1.621 0.697 1.651 1.588 0 0.012 0.002 0.051 0.004 0.063v14.079c-0.254-0.215-0.644-0.381-1.039-0.381h-8.895c0-6.020 0-12.783 0-15.349zM1.242 6.328h0.764v13.771c0 0.158 0.128 0.287 0.287 0.287h9.182c0.437 0 0.859 0.287 0.994 0.753h-11.226v-14.81zM24.358 21.137h-11.226c0.136-0.468 0.554-0.753 0.998-0.753h9.178c0.158 0 0.287-0.128 0.287-0.287v-13.771h0.764v14.81z"></path>
</symbol>
<symbol id="icon-people" viewBox="0 0 26 32">
<path d="M1.918 10.148v2.182c0 0.117 0.054 0.228 0.146 0.3 1.491 1.174 3.362 1.82 5.268 1.82 0.571 0 1.142-0.060 1.7-0.172 1.19 0.526 2.457 0.795 3.768 0.795 1.315 0 2.582-0.269 3.768-0.795 2.382 0.481 4.919-0.036 6.968-1.648 0.092-0.073 0.146-0.183 0.146-0.3v-2.182c0-0.32-0.159-0.612-0.443-0.791l-2.98-1.676c0.652-0.827 1.138-2.005 1.222-3.015 0.247-1.739-1.17-3.58-3.21-3.58-0.858 0-1.673 0.353-2.271 0.945-0.021 0.021-0.044 0.038-0.064 0.059-0.018 0.019-0.033 0.042-0.051 0.061-0.012 0.013-0.022 0.028-0.034 0.041-0.583-1.063-1.704-1.72-3.024-1.72-0.128 0-0.254 0.009-0.379 0.021-0.008-0-0.014-0.004-0.022-0.004-0.071 0-0.221 0.019-0.301 0.042-0.012 0.003-0.020 0.012-0.032 0.016-0.986 0.199-1.821 0.797-2.322 1.661-0.602-0.702-1.487-1.123-2.449-1.123-3.011 0-4.347 3.554-1.97 6.612l-3.007 1.67c-0.267 0.169-0.426 0.461-0.426 0.781zM16.561 13.438c-0.065 0.032-0.129 0.065-0.194 0.095l-0 0c-0 0-0.001 0.001-0.001 0.001-1.119 0.514-2.319 0.775-3.566 0.775-1.243 0-2.443-0.261-3.567-0.776-0.547-0.249-1.076-0.565-1.576-0.941v-2.212c0-0.075 0.037-0.142 0.079-0.17l3.5-1.945c0.435 0.37 0.992 0.641 1.568 0.641 0.555 0 1.155-0.275 1.581-0.65l3.457 1.942c0.064 0.041 0.1 0.107 0.1 0.183v2.211c-0.44 0.331-0.904 0.612-1.382 0.846zM22.847 10.012c0.045 0.028 0.071 0.078 0.071 0.136v1.994c-1.517 1.138-3.342 1.655-5.191 1.525 0.284-0.178 0.594-0.398 0.834-0.586 0.092-0.072 0.146-0.183 0.146-0.301v-2.4c0-0.335-0.168-0.644-0.47-0.837l-1.837-1.032 0.447-0.247c0.542 0.442 1.007 0.573 1.424 0.573 0.51 0 1.048-0.25 1.447-0.585l3.128 1.76zM18.271 1.849c1.064 0 1.998 0.695 2.328 1.651-0.642-0.076-1.269-0.393-1.724-0.88-0.082-0.088-0.199-0.134-0.32-0.119-0.119 0.013-0.226 0.081-0.287 0.184-0.436 0.73-1.15 1.218-1.963 1.356 0-0.001-0-0.001-0-0.002 0.004-0.166-0.006-0.335-0.025-0.503-0.002-0.017-0.004-0.034-0.006-0.051-0.025-0.191-0.082-0.431-0.094-0.469 0.434-0.695 1.24-1.166 2.091-1.166zM16.221 4.82c0.965-0.106 1.838-0.591 2.438-1.358 0.591 0.485 1.341 0.778 2.082 0.814-0.006 1.381-1.134 3.796-2.47 3.796-1.030 0-1.91-1.474-2.239-2.495 0.084-0.263 0.144-0.516 0.189-0.758zM16.299 7.694l-0.683 0.378-0.689-0.387c0.256-0.318 0.49-0.688 0.691-1.089 0.193 0.406 0.424 0.778 0.681 1.098zM15.269 5.453c-0.368 1.099-1.314 2.689-2.465 2.689-1.342 0-2.486-2.207-2.704-3.618 0.058-0.014 1.872 0.097 3.12-1.542 0.634 0.53 1.488 0.881 2.32 0.916 0.010 0.498-0.111 1.084-0.271 1.555zM12.826 1.235c2.142 0 2.55 1.843 2.583 1.882-0.777-0.079-1.485-0.459-1.975-0.983-0.082-0.088-0.201-0.132-0.321-0.119s-0.226 0.082-0.288 0.185c-0.424 0.718-1.090 1.224-1.86 1.439-0.297 0.083-0.619 0.121-0.899 0.118 0.105-1.404 1.23-2.523 2.759-2.523zM9.984 6.588c0.198 0.397 0.434 0.775 0.703 1.108l-0.675 0.375-0.699-0.393c0.265-0.338 0.49-0.716 0.67-1.090zM7.322 1.849c0.867 0 1.661 0.44 2.103 1.166-0.022 0.077-0.082 0.384-0.090 0.422-0.532-0.127-1.020-0.41-1.403-0.819-0.082-0.088-0.199-0.131-0.321-0.119-0.119 0.013-0.226 0.082-0.287 0.185-0.511 0.862-1.449 1.398-2.448 1.398 0.122-1.254 1.17-2.235 2.446-2.235zM4.91 4.846c1.098-0.011 2.135-0.528 2.807-1.384 0.459 0.378 1.004 0.627 1.584 0.741 0.022 0.443 0.138 0.981 0.27 1.378-0.211 0.647-0.616 1.418-1.118 1.931-0.003 0.003-0.007 0.005-0.011 0.008-0.314 0.331-0.761 0.554-1.113 0.554-1.228 0-2.189-1.933-2.419-3.227zM2.682 10.148c0-0.058 0.026-0.107 0.052-0.125l3.171-1.76c0.19 0.158 0.234 0.177 0.272 0.204l-0 0c0.373 0.248 0.715 0.372 1.182 0.372 0.497 0 0.95-0.211 1.348-0.535 0.022-0.018 0.047-0.035 0.068-0.052l0.453 0.255-1.885 1.049c-0.282 0.182-0.45 0.49-0.45 0.825v2.4c0 0.117 0.054 0.228 0.146 0.3 0.244 0.192 0.56 0.415 0.834 0.587-1.876 0.128-3.701-0.407-5.191-1.526v-1.994z"></path>
<path d="M24.468 16.484c-0.47-0.296-1.049-0.326-1.547-0.085l-4.715 2.278c-0.016-0.883-0.737-1.596-1.623-1.596l-2.704 0.001c-1.333-1.159-3.037-1.869-4.586-1.906-1.528-0.036-2.899-0.046-3.539-0.049v-0.772h-5.372v8.874h5.372v-1.063c1.473 0.845 5.347 2.963 7.185 2.963 0.042 0 0.082-0.001 0.122-0.003 3.233-0.181 10.857-5.547 11.36-5.903 0.492-0.285 0.797-0.814 0.797-1.384 0-0.554-0.28-1.060-0.75-1.355zM4.99 22.465h-3.844v-7.346h3.844v7.346zM24.028 18.567c-0.012 0.006-0.023 0.013-0.034 0.021-0.079 0.056-7.922 5.603-10.976 5.774-0.030 0.002-0.061 0.002-0.093 0.002-1.612 0-5.543-2.121-7.171-3.083v-5.391c0.637 0.003 2.001 0.013 3.521 0.049 1.415 0.034 2.987 0.71 4.204 1.807l0.109 0.099 2.996-0.001c0.475 0 0.862 0.387 0.862 0.862s-0.387 0.862-0.862 0.862h-5.503v0.764h5.503c0.527 0 0.992-0.256 1.29-0.647l5.381-2.599c0.264-0.129 0.559-0.112 0.808 0.044s0.391 0.414 0.391 0.707c0 0.302-0.163 0.58-0.426 0.728z"></path>
<path d="M12.418 9.84h0.764v0.709h-0.764v-0.709z"></path>
<path d="M12.418 11.253h0.764v0.709h-0.764v-0.709z"></path>
<path d="M12.418 12.666h0.764v0.709h-0.764v-0.709z"></path>
</symbol>
<symbol id="icon-study-program" viewBox="0 0 26 32">
<path d="M23.727 4.675c0-0-0-0.001-0-0.002-0.005-0.012-0.011-0.023-0.018-0.033-0.001-0.001-0.001-0.002-0.002-0.002-0.007-0.011-0.015-0.021-0.025-0.031l-3.537-3.537c-0.009-0.009-0.019-0.017-0.030-0.024-0.002-0.002-0.005-0.003-0.007-0.004-0.009-0.005-0.017-0.010-0.027-0.014-0.003-0.001-0.005-0.003-0.008-0.003-0.023-0.009-0.048-0.014-0.073-0.015-0.002 0-0.003-0-0.004-0h-15.582c-0.115 0-0.209 0.094-0.209 0.209v21.573c0 0.014 0.001 0.027 0.004 0.041 0.001 0.006 0.003 0.011 0.005 0.017 0.002 0.007 0.004 0.015 0.007 0.022s0.006 0.013 0.010 0.019c0.003 0.005 0.006 0.012 0.009 0.017 0.007 0.011 0.015 0.020 0.024 0.029 0.001 0.001 0.001 0.002 0.002 0.002l1.593 1.593c0.082 0.082 0.214 0.082 0.296 0l1.446-1.445 1.445 1.445c0.041 0.041 0.094 0.061 0.148 0.061s0.107-0.020 0.148-0.061l1.445-1.445 1.446 1.445c0.082 0.082 0.214 0.082 0.296 0l1.445-1.445 1.445 1.445c0.082 0.082 0.214 0.082 0.295 0l1.446-1.445 1.445 1.445c0.041 0.041 0.094 0.061 0.148 0.061s0.107-0.020 0.148-0.061l1.445-1.445 1.446 1.445c0.081 0.082 0.214 0.082 0.295 0l1.593-1.593c0.003-0.003 0.005-0.007 0.008-0.010 0.006-0.007 0.012-0.014 0.017-0.021s0.008-0.015 0.012-0.022c0.003-0.005 0.005-0.009 0.007-0.014 0.004-0.009 0.006-0.019 0.009-0.029 0.001-0.003 0.003-0.006 0.003-0.010 0.003-0.014 0.004-0.028 0.004-0.043v-18.034c-0.001-0.027-0.006-0.055-0.017-0.080zM20.206 1.723l2.823 2.823h-2.823v-2.823zM23.325 22.703l-1.384 1.384-1.446-1.445c-0.081-0.081-0.214-0.081-0.295 0l-1.445 1.445-1.445-1.445c-0.082-0.081-0.214-0.081-0.296 0l-1.446 1.445-1.445-1.444c0-0-0-0-0-0.001-0.041-0.041-0.094-0.061-0.148-0.061s-0.107 0.020-0.148 0.061c-0 0-0 0-0 0l-1.445 1.445-1.446-1.445c-0.082-0.081-0.214-0.081-0.296 0l-1.445 1.445-1.445-1.445c-0.082-0.081-0.214-0.081-0.296 0l-1.446 1.445-1.384-1.384v-21.277h15.164v3.328c0 0.115 0.094 0.209 0.209 0.209h3.328l0 17.74z"></path>
<path d="M6.183 3.404h6.847c0.115 0 0.209-0.094 0.209-0.209s-0.094-0.209-0.209-0.209h-6.847c-0.116 0-0.209 0.094-0.209 0.209s0.093 0.209 0.209 0.209z"></path>
<path d="M6.183 4.697h10.98c0.115 0 0.209-0.094 0.209-0.209s-0.094-0.209-0.209-0.209h-10.98c-0.116 0-0.209 0.094-0.209 0.209s0.093 0.209 0.209 0.209z"></path>
<path d="M5.974 5.858v6.77c0 0.115 0.093 0.209 0.209 0.209h15.583c0.115 0 0.209-0.094 0.209-0.209v-6.77c0-0.115-0.093-0.209-0.209-0.209h-15.583c-0.116 0-0.209 0.094-0.209 0.209zM10.595 6.067h10.961v1.799h-10.961v-1.799zM10.595 8.285h10.961v1.799h-10.961v-1.799zM10.595 10.502h10.961v1.917h-10.961v-1.917zM6.392 6.067h3.785v1.799h-3.785v-1.799zM6.392 8.285h3.785v1.799h-3.785v-1.799zM6.392 10.502h3.785v1.917h-3.785v-1.917z"></path>
<path d="M21.766 13.778h-15.583c-0.116 0-0.209 0.094-0.209 0.209v6.77c0 0.115 0.093 0.209 0.209 0.209s0.209-0.093 0.209-0.209v-2.126h3.785v2.126c0 0.115 0.094 0.209 0.209 0.209s0.209-0.093 0.209-0.209v-2.126h10.961v2.126c0 0.115 0.094 0.209 0.209 0.209s0.209-0.093 0.209-0.209v-6.77c0-0.115-0.093-0.209-0.208-0.209zM10.177 18.213h-3.785v-1.798h3.785v1.798zM10.177 15.996h-3.785v-1.799h3.785v1.799zM21.556 18.213h-10.961v-1.798h10.961v1.798zM21.556 15.996h-10.961v-1.799h10.961v1.799z"></path>
<path d="M3.215 1.008c-0.115 0-0.209 0.094-0.209 0.209v21.573c0 0.115 0.094 0.209 0.209 0.209s0.209-0.094 0.209-0.209v-21.573c0-0.115-0.094-0.209-0.209-0.209z"></path>
<path d="M2.065 1.008c-0.115 0-0.209 0.094-0.209 0.209v21.573c0 0.115 0.094 0.209 0.209 0.209s0.209-0.094 0.209-0.209v-21.573c0-0.115-0.093-0.209-0.209-0.209z"></path>
</symbol>
<symbol id="icon-wave" viewBox="0 0 58 32">
<path fill="#fff" style="fill: var(--color2, #fff)" d="M8.139 27.61c-3.453 0.364-5.918 2.43-8.156 2.742v-30.473h58.603v16.746c-1.652-0.389-8.121 6.103-11.8 7.41-5.414 0.885-2.1-3.436-14.768 2.69s-19.806 0.455-23.879 0.885z"></path>
</symbol>
<symbol id="icon-vector" viewBox="0 0 40 32"><path d="M34.458 1.514c-1.485 0.664-2.907 1.475-4.266 2.379-2.731 1.797-5.227 3.936-7.568 6.218-2.291 2.256-4.444 4.63-6.458 7.12l-0.125 0.16c-0.515 0.637-2.822 3.472-2.822 3.472l-9.597-14.382-3.622 10.043 12.976 15.477c1.261-2.552 2.474-5.070 3.664-7.258 0.294-0.557 0.605-1.080 0.901-1.613 0 0 1.523-2.677 1.923-3.35 1.602-2.698 3.333-5.325 5.238-7.821 1.909-2.491 3.984-4.87 6.336-6.96 1.117-1.018 2.342-1.964 3.64-2.807l0.11-0.067c1.331-0.848 2.747-1.59 4.261-2.125-1.574 0.31-3.112 0.848-4.592 1.514z"></path>
</symbol>
</defs>
</svg>
